<svg xmlns="http://www.w3.org/2000/svg" width="48.08" height="42.764" viewBox="0 0 48.08 42.764">
  <g id="Group_10455" data-name="Group 10455" transform="translate(-13729.435 -4023.057)">
    <g id="Group_10454" data-name="Group 10454" transform="translate(13729.976 4023.557)">
      <g id="Group_10447" data-name="Group 10447" transform="translate(0 0)">
        <path id="Path_10531" data-name="Path 10531" d="M113.514,168.793c-9.814,0-20.755-2.5-23.073-8.1-.911-2.2-.092-9.053-.028-9.579.018-9,10.374-16.327,23.1-16.327s23.082,7.323,23.1,16.327c.065.526.883,7.381-.028,9.579-2.318,5.6-13.258,8.1-23.071,8.1Zm0-33.285c-12.339,0-22.377,7.01-22.377,15.626a.386.386,0,0,1,0,.045c-.009.071-.879,7.173-.025,9.236,1.578,3.81,9.118,7.655,22.405,7.655s20.825-3.845,22.4-7.655c.855-2.063-.016-9.164-.025-9.236a.376.376,0,0,1,0-.045c0-8.616-10.038-15.626-22.377-15.626ZM90.775,151.135h0Z" transform="translate(-90.014 -127.028)" stroke="#000" stroke-width="1"/>
        <path id="Path_10532" data-name="Path 10532" d="M136.611,142.67a.361.361,0,0,1-.263-.609c4.3-4.556,11.484-7.277,19.222-7.277s14.924,2.72,19.222,7.277a.362.362,0,0,1-.526.5c-4.164-4.414-11.154-7.049-18.7-7.049s-14.532,2.635-18.7,7.049a.361.361,0,0,1-.263.113Z" transform="translate(-132.071 -127.027)" stroke="#000" stroke-width="1"/>
        <path id="Path_10533" data-name="Path 10533" d="M160.309,117.2a.361.361,0,0,1-.248-.624l1.1-1.037a.627.627,0,0,0,.2-.459.616.616,0,0,0-.191-.452c-4.669-4.459-12.077-7.12-19.818-7.12s-15.149,2.661-19.818,7.12a.617.617,0,0,0-.191.452.63.63,0,0,0,.2.46l1.1,1.037a.362.362,0,1,1-.5.526l-1.1-1.037a1.364,1.364,0,0,1-.426-.983,1.333,1.333,0,0,1,.415-.977c4.8-4.584,12.4-7.32,20.318-7.32s15.518,2.737,20.317,7.321a1.332,1.332,0,0,1,.415.977,1.363,1.363,0,0,1-.425.983l-1.1,1.038a.36.36,0,0,1-.248.1Z" transform="translate(-117.851 -101.558)" stroke="#000" stroke-width="1"/>
        <path id="Path_10534" data-name="Path 10534" d="M294.346,54.861h-2.585a2.946,2.946,0,1,1,2.946-2.946V54.5A.362.362,0,0,1,294.346,54.861Zm-2.585-5.169a2.223,2.223,0,0,0,0,4.445h2.223V51.915A2.225,2.225,0,0,0,291.762,49.693Z" transform="translate(-270.847 -48.97)" stroke="#000" stroke-width="1"/>
        <path id="Path_10535" data-name="Path 10535" d="M348.946,54.861h-2.584A.361.361,0,0,1,346,54.5V51.916a2.946,2.946,0,1,1,2.946,2.946Zm-2.223-.723h2.223a2.223,2.223,0,1,0-2.223-2.223Z" transform="translate(-322.862 -48.97)" stroke="#000" stroke-width="1"/>
      </g>
    </g>
    <g id="Group_8487" data-name="Group 8487" transform="translate(13743.579 4040)">
      <path id="Path_9712" data-name="Path 9712" d="M650.388,112.013a8.569,8.569,0,1,1-.028-9.53" transform="translate(-632.183 -98.7)" fill="none" stroke="#000" stroke-linecap="round" stroke-miterlimit="10" stroke-width="1.8"/>
      <line id="Line_114" data-name="Line 114" x2="13.512" transform="translate(0 10.497)" fill="none" stroke="#000" stroke-linecap="round" stroke-miterlimit="10" stroke-width="1.8"/>
      <line id="Line_115" data-name="Line 115" x2="13.512" transform="translate(0 7.225)" fill="none" stroke="#000" stroke-linecap="round" stroke-miterlimit="10" stroke-width="1.8"/>
    </g>
  </g>
</svg>
