<svg xmlns="http://www.w3.org/2000/svg" width="48.83" height="54.241" viewBox="0 0 48.83 54.241">
  <g id="Groupe_9216" data-name="Groupe 9216" transform="translate(0.125 0.2)">
    <path id="Tracé_9728" data-name="Tracé 9728" d="M3159.441,3112.98a8.924,8.924,0,0,1,.363,2.957.837.837,0,0,1-.39.785c-.208.164-.2.169-.134.5l4.544,21.419c.521,2.456.118,4.278-2.6,4.95l-26.68,6.611c-3.741.927-6.793,1.87-10.626.418a33.4,33.4,0,0,1-7.052-3.557c-1.933-1.335-1.354-3.522-1.054-5.527.475-3.178,1.283-7.372,2.153-11.411.934-4.337,1.941-8.5,2.682-11.033a3.939,3.939,0,0,1,.709-1.45c.16-.185.086-.286.173-.478.1-.211.328-.361.724-.528a61.7,61.7,0,0,1,9.816-3.2c.2-.047.16-.009.152-.218l-.181-4.759c-.125-3.3.482-6.65,3-9.012a7.066,7.066,0,0,1,5.405-1.965,12.079,12.079,0,0,0,1.537-.076c4.012-.1,6.194,3.294,6.949,6.858a25.413,25.413,0,0,1,.378,4.128l.14,2.916c.016.322,0,.333.345.341a80.139,80.139,0,0,1,8.765.691c.54.072.665.031.874.643Zm-42.041,28.761a.139.139,0,0,1,.276.04q-.1.651-.179,1.3c-.206,1.675.276,2.2.816,2.584a18.229,18.229,0,0,0,2.142,1.262.139.139,0,0,1-.127.247,19.407,19.407,0,0,1-2.15-1.264c-.619-.428-1.187-.994-.958-2.863C3117.273,3142.614,3117.335,3142.177,3117.4,3141.741Zm38.469,1.482a.139.139,0,0,1-.066-.27l3.913-.969c1.844-.491,2.152-1.266,1.737-3.063l-.3-1.411a.139.139,0,0,1,.272-.057l.3,1.408c.449,1.946.055,2.862-1.938,3.393l-3.917.971Zm-22.881-30q.308-.068.616-.133c.211-.045.177,0,.169-.222l-.169-4.436c-.121-3.176.543-6.766,3.372-8.594a3.657,3.657,0,0,0,.741-.573,7.148,7.148,0,0,1,1.231-.951c.536-.325.728-.356-.091-.213a6.691,6.691,0,0,0-3.429,1.745c-2.39,2.241-2.94,5.461-2.821,8.585l.177,4.656c.009.223-.021.185.2.135Zm1.5-.313.165-.032c.178-.035.142-.009.134-.2l-.184-4.274a14.657,14.657,0,0,1,1.18-6.343c.332-.736.615-1.213-.15-.167-1.279,1.748-1.557,4.271-1.47,6.55l.166,4.36c.006.172-.016.141.16.106Zm11.019-1.6-.106-2.94a24.522,24.522,0,0,0-.252-3.706,7.57,7.57,0,0,0-1.07-2.721,5.467,5.467,0,0,0-2.694-2.2.668.668,0,0,0-.7.018c-3.349,1.281-4.109,5.471-3.973,8.637l.163,3.781c.016.366,0,.3.368.244a69.429,69.429,0,0,1,7.872-.749c.455-.018.4.073.389-.365Zm-2.947-11.619a6.272,6.272,0,0,1,1.985,1.947,8.149,8.149,0,0,1,1.167,3.006,26.1,26.1,0,0,1,.246,3.727l.106,2.939c.013.371-.062.336.288.329l.462-.009c.332-.005.261.028.248-.326l-.1-2.9a26.63,26.63,0,0,0-.267-3.881c-.316-1.708-1.058-3.649-2.5-4.483a4,4,0,0,0-1.57-.53c-.582-.068-.429-.043-.059.182Zm-20.084,17.449c-.429.181-.449.273-.287.491a7.535,7.535,0,0,1,.761,1.31,8.161,8.161,0,0,1,.427,1.072c.194.654.123.644.69.924l2.426,1.353a.805.805,0,0,0,.762.16l7.678-1.154c.247-.037.231-.053.191-.32a1.5,1.5,0,0,0-.515-.9,1.944,1.944,0,0,1,.176-2.937c.237-.168.19-.073.176-.391l-.133-3.082c-.012-.294-.052-.248-.333-.192a60.789,60.789,0,0,0-12.02,3.669Zm14.806-4.159c-.447.069-.37,0-.349.453l.14,3.261c.016.357.009.341.241.583a1.835,1.835,0,0,1,.463.88,2.227,2.227,0,0,1-.175,1.436,3.006,3.006,0,0,0-.357,1.1c.013.3-.04.263.252.219l10.019-1.506c.27-.041.245,0,.2-.291a1.611,1.611,0,0,0-.12-.436,2,2,0,0,0-.419-.538,1.944,1.944,0,0,1,.164-2.935c.245-.173.2-.073.182-.4l-.114-2.292c-.02-.4.044-.333-.363-.328a70.365,70.365,0,0,0-9.766.8Zm-2.415,4.833a1.424,1.424,0,0,0,.078,1.8c.176.209.149.189.139-.04l-.072-1.668C3135,3117.669,3135.038,3117.611,3134.865,3117.82Zm1.085,3.329.551-.083c.221-.033.193,0,.183-.227l-.528-12.441c-.132-3.107.531-6.8,3.33-8.635a4.911,4.911,0,0,1,2.539-.826,4.519,4.519,0,0,1,2.442.631,6.847,6.847,0,0,1,2.993,4.828,29.732,29.732,0,0,1,.3,3.993l.525,10.648c.016.312-.032.262.283.215l.448-.067c.279-.042.261-.023.246-.326l-.5-10.469a24.812,24.812,0,0,0-.368-4.028c-.7-3.3-2.68-6.5-6.389-6.4a5.6,5.6,0,0,0-2.767.833c-3.09,1.878-4.224,6.227-4.078,9.622l.539,12.525c.012.274-.014.25.253.209Zm1.292-2.237a1.6,1.6,0,0,0-.011-.628c-.086-.387-.108-.35-.093.011l.027.621C3137.179,3119.215,3137.189,3119.217,3137.243,3118.912Zm10.144-2.978a1.422,1.422,0,0,0,.062,1.673c.208.281.228.327.211-.009l-.078-1.579C3147.567,3115.731,3147.6,3115.64,3147.386,3115.933Zm2.418,1.055a1.6,1.6,0,0,0-.015-.651c-.082-.346-.108-.361-.091,0l.031.647C3149.744,3117.261,3149.75,3117.3,3149.8,3116.988Zm.1-1.6a1.852,1.852,0,0,1,.426.822,2.224,2.224,0,0,1-.165,1.454,2.632,2.632,0,0,0-.344,1.174c-.006.282.04.224.308.183l6.5-.977c.349-.052.341-.019.617-.248l1.71-1.417c.259-.228.3-.2.3-.589a9.625,9.625,0,0,0-.3-2.525c-.114-.387-.1-.329-.477-.379a79.825,79.825,0,0,0-8.635-.684c-.409-.01-.35-.076-.331.329l.11,2.275c.023.468,0,.266.281.581Zm-23.542,7.765a.447.447,0,0,0-.434.48l.192,1.338c.062.495.457.374.8.318l12.207-1.975c.333-.049.3,0,.269-.337l-.171-1.528c-.032-.291,0-.23-.309-.183l-12.559,1.888Zm16.54-2.02a.527.527,0,0,1,.456.573.5.5,0,0,1-.528.481.526.526,0,0,1-.456-.573.5.5,0,0,1,.528-.481Zm-1.332,1.534a1.859,1.859,0,0,1-.206-1.6c.062-.173.127-.189-.14-.149l-1.228.185c-.288.043-.247-.01-.214.279l.171,1.533c.045.269-.008.266.333.211l1.148-.186c.4-.065.316,0,.134-.274Zm.4-1.6a1.252,1.252,0,0,0,.311,1.55c.25.188.386.122.672.076l3.73-.6c.435-.071.378.014.329-.42l-.147-1.317c-.04-.352.008-.285-.361-.229l-3.971.6a.693.693,0,0,0-.563.347Zm5.446-.8.153,1.366c.032.324.033.311.4.253l9.661-1.559c.362-.058.378-.116.338-.566l-.118-.954c0-.365-.211-.354-.507-.309l-9.693,1.457c-.315.047-.265-.008-.229.312Zm-21.7,2.249-1.1-.624c-.5-.281-.4-.285-.325.293l3.336,25.454c.037.283.077.655.143,1.036.4,2.277,1.5,2.138,3.58,1.741,1.18-.226,2.394-.589,3.052-.752l26.7-6.615c2.415-.6,2.633-2.175,2.181-4.307l-4.475-21.089c-.084-.4-.01-.417-.305-.172l-.286.237c-.21.174-.306.228-.142.345a.872.872,0,0,1,.328.677l.121.975c.057.464.033.944-.511,1.09-.286.077-.1.179-.349.642l-.71,1.314c-.356.66-.623.677-1.338.8l-4.126.646a1.2,1.2,0,0,1-1.155-.179,2.639,2.639,0,0,0-2.982.4c-.379.4-.321.475-.964.573l-7.734,1.185c-.7.107-.553.1-1.2-.262a2.122,2.122,0,0,0-2.771.6c-.384.516-.152.492-.906.616l-4.5.737c-.474.077-.822.186-1.236-.207l-1.074-1.02a1.568,1.568,0,0,1-.38-.512c-.085-.2-.087-.231-.331-.282a.841.841,0,0,1-.682-.819l-.2-1.425a.821.821,0,0,1,.386-.845c.251-.155.327-.06-.031-.262Zm31.309-1.534-29.762,4.815c-.319.065-.143.289.04.463l1.088,1c.2.184.56.119.788.082l4.5-.737c.505-.083.243.012.548-.4a2.676,2.676,0,0,1,3.481-.763c.438.245.26.291.851.2l7.735-1.184c.443-.068.384-.129.643-.4a3.187,3.187,0,0,1,3.647-.513c.433.232.322.2.809.12l4.115-.645c.535-.094.689-.046.943-.518l.71-1.314c.146-.27.085-.237-.139-.2Zm-34.485-.787a34.935,34.935,0,0,1-.59,8.651c-.615,4.087-1.221,8.112.276,11.508a.279.279,0,0,1-.51.225c-1.562-3.545-.945-7.648-.317-11.815a35.619,35.619,0,0,0,.559-8.755c-.023-.233-.026-.256-.219-.3l-.438-.086c-.239-.046-.232-.007-.316.3-.7,2.549-1.608,6.277-2.479,10.32-.867,4.027-1.674,8.209-2.146,11.376-.252,1.686-.815,3.819.774,4.956a31.837,31.837,0,0,0,6.977,3.527,10.691,10.691,0,0,0,3.055.681c1.479.107.767.031.417-.722a8.49,8.49,0,0,1-.511-2.339l-3.413-26.046c-.037-.284-.014-.3-.24-.454-.417-.292-.42-.777-.639-1.154-.177-.3-.289-.353-.239.13Zm-1.13-1.118a5.345,5.345,0,0,0,.842.151c.283.053.259.108.113-.192a7.217,7.217,0,0,0-.472-.837c-.142-.214-.116-.229-.264,0a3.545,3.545,0,0,0-.307.619c-.055.142-.09.188.088.258Z" transform="translate(-3115.496 -3097.4)" stroke="#000" stroke-width="0.4"/>
  </g>
</svg>
