<svg xmlns="http://www.w3.org/2000/svg" width="21.593" height="16.37" viewBox="0 0 21.593 16.37">
  <g id="noun_Email_1154727" transform="translate(4.35 0.35)">
    <g id="Groupe_9193" data-name="Groupe 9193" transform="translate(-4 0)">
      <g id="Groupe_9192" data-name="Groupe 9192">
        <path id="Tracé_9922" data-name="Tracé 9922" d="M172.893,389.357l6.694-5.385v11.674Zm-3.865.827,1.009.812.007-.008a.608.608,0,0,0,.806,0l.007.008,1.009-.812,6.577,6.18H162.449ZM168,389.357l-6.695,6.289V383.968Zm2.446.293-7.88-6.344h15.766ZM178.934,382H161.958A1.96,1.96,0,0,0,160,383.959v11.752a1.961,1.961,0,0,0,1.959,1.959h16.975a1.96,1.96,0,0,0,1.959-1.959V383.959A1.959,1.959,0,0,0,178.934,382Z" transform="translate(-160 -382)" stroke="#fff" stroke-width="0.7" fill-rule="evenodd"/>
      </g>
    </g>
  </g>
</svg>
