<svg xmlns="http://www.w3.org/2000/svg" width="21.911" height="24.404" viewBox="0 0 21.911 24.404">
  <g id="Groupe_8378" data-name="Groupe 8378" transform="translate(702.382 -5074.85)">
    <path id="Shape" d="M22.966,32.181H8.4a3.378,3.378,0,0,1-3.521-3.208v-.03a.15.15,0,0,0,0-.03L7.644,13.374a.648.648,0,0,1,.643-.606H11.05a4.794,4.794,0,0,1,1.381-3.316,4.541,4.541,0,0,1,6.422-.077l.078.077a4.8,4.8,0,0,1,1.385,3.316h2.763a.657.657,0,0,1,.643.606l2.76,15.539a.235.235,0,0,1,0,.059A3.379,3.379,0,0,1,22.966,32.181ZM8.876,14.1,6.178,29A2.091,2.091,0,0,0,8.4,30.85H22.966A2.092,2.092,0,0,0,25.192,29L22.484,14.1m-10.145,0,3.344-4.692a3.273,3.273,0,0,0-2.337.981,3.449,3.449,0,0,0-1,2.375h6.676a3.457,3.457,0,0,0-1-2.375A3.279,3.279,0,0,0,15.683,9.412Z" transform="translate(-707.109 5066.917)" stroke="#000" stroke-width="0.3"/>
  </g>
</svg>
