<svg xmlns="http://www.w3.org/2000/svg" width="21.911" height="24.404"><path fill="#fff" stroke="#fff" stroke-width=".3" d="M18.239 24.248H3.673A3.378 3.378 0 0 1 .152 21.04v-.03a.15.15 0 0 0 0-.03L2.917 5.441a.648.648 0 0 1 .643-.606h2.763a4.794 4.794 0 0 1 1.381-3.316 4.541 4.541 0 0 1 6.422-.077l.078.077a4.8 4.8 0 0 1 1.385 3.316h2.763a.657.657 0 0 1 .643.606l2.76 15.539a.235.235 0 0 1 0 .059 3.379 3.379 0 0 1-3.516 3.209ZM4.149 6.167l-2.698 14.9a2.091 2.091 0 0 0 2.222 1.85h14.566a2.092 2.092 0 0 0 2.226-1.85l-2.708-14.9m-10.145 0 3.344-4.692a3.273 3.273 0 0 0-2.337.981 3.449 3.449 0 0 0-1 2.375h6.676a3.457 3.457 0 0 0-1-2.375 3.279 3.279 0 0 0-2.339-.977Z" data-name="Groupe 8378"/></svg>