<svg xmlns="http://www.w3.org/2000/svg" width="33.221" height="36.889" viewBox="0 0 33.221 36.889">
  <g id="Groupe_9216" data-name="Groupe 9216" transform="translate(0.149 0.2)">
    <path id="Tracé_9728" data-name="Tracé 9728" d="M3145.276,3107.958a6.047,6.047,0,0,1,.247,2,.567.567,0,0,1-.265.532c-.141.111-.138.115-.091.338l3.08,14.515c.354,1.664.08,2.9-1.759,3.354l-18.08,4.48c-2.535.628-4.6,1.267-7.2.283a22.625,22.625,0,0,1-4.779-2.411c-1.31-.9-.917-2.386-.714-3.745.322-2.153.87-5,1.459-7.733.633-2.939,1.315-5.76,1.818-7.477a2.677,2.677,0,0,1,.48-.983c.109-.125.059-.194.118-.323s.222-.244.491-.358a41.807,41.807,0,0,1,6.652-2.169c.136-.032.108-.006.1-.148l-.122-3.225c-.085-2.234.327-4.507,2.033-6.107a4.79,4.79,0,0,1,3.663-1.332,8.167,8.167,0,0,0,1.042-.051c2.719-.069,4.2,2.232,4.709,4.648a17.246,17.246,0,0,1,.257,2.8l.095,1.976c.011.218,0,.226.234.231a54.327,54.327,0,0,1,5.94.468c.366.049.451.021.592.436Zm-28.49,19.49a.094.094,0,0,1,.187.027q-.066.441-.121.883c-.139,1.135.187,1.492.553,1.751a12.39,12.39,0,0,0,1.452.855.094.094,0,0,1-.086.167,13.12,13.12,0,0,1-1.458-.856c-.419-.29-.8-.674-.649-1.94C3116.7,3128.04,3116.742,3127.744,3116.786,3127.449Zm26.069,1a.094.094,0,0,1-.045-.183l2.651-.657c1.25-.333,1.458-.858,1.177-2.076l-.2-.956a.094.094,0,0,1,.185-.039l.2.954c.3,1.319.037,1.939-1.313,2.3l-2.655.658Zm-15.505-20.329.417-.09c.143-.03.12,0,.114-.15l-.114-3.006c-.082-2.152.368-4.585,2.285-5.824a2.469,2.469,0,0,0,.5-.388,4.867,4.867,0,0,1,.834-.644c.363-.22.494-.241-.062-.145a4.535,4.535,0,0,0-2.324,1.183,7.273,7.273,0,0,0-1.912,5.818l.12,3.156c.006.151-.014.125.139.091Zm1.016-.212.112-.022c.121-.024.1-.006.091-.135l-.125-2.9a9.925,9.925,0,0,1,.8-4.3c.225-.5.417-.822-.1-.114a7.208,7.208,0,0,0-1,4.438l.112,2.955c0,.116-.011.1.108.072Zm7.467-1.081-.072-1.992a16.61,16.61,0,0,0-.171-2.511,5.132,5.132,0,0,0-.725-1.844,3.706,3.706,0,0,0-1.826-1.491.454.454,0,0,0-.472.012c-2.27.868-2.785,3.708-2.692,5.854l.11,2.562c.011.248,0,.2.25.165a47,47,0,0,1,5.334-.507c.308-.012.273.05.263-.248Zm-2-7.874a4.249,4.249,0,0,1,1.345,1.319,5.529,5.529,0,0,1,.791,2.037,17.755,17.755,0,0,1,.167,2.526l.072,1.992c.009.251-.042.228.195.223l.313-.006c.225,0,.177.019.168-.221l-.07-1.965a18.039,18.039,0,0,0-.181-2.63,4.393,4.393,0,0,0-1.7-3.038,2.707,2.707,0,0,0-1.063-.359c-.395-.046-.291-.03-.04.123Zm-13.61,11.824c-.291.123-.3.185-.194.333a5.118,5.118,0,0,1,.516.888,5.506,5.506,0,0,1,.29.726c.132.443.083.436.468.626l1.644.917a.546.546,0,0,0,.517.109l5.2-.782c.167-.025.157-.036.13-.217a1.02,1.02,0,0,0-.349-.611,1.318,1.318,0,0,1,.119-1.99c.16-.114.129-.05.119-.265l-.09-2.089c-.008-.2-.036-.168-.226-.13a41.21,41.21,0,0,0-8.146,2.487Zm10.034-2.819c-.3.047-.25,0-.237.307l.1,2.21c.01.242.006.231.163.395a1.245,1.245,0,0,1,.314.6,1.508,1.508,0,0,1-.119.973,2.044,2.044,0,0,0-.242.744c.009.2-.027.178.171.148l6.79-1.02c.183-.028.166,0,.136-.2a1.083,1.083,0,0,0-.081-.3,1.361,1.361,0,0,0-.284-.365,1.317,1.317,0,0,1,.111-1.989c.166-.118.134-.05.123-.272l-.077-1.553c-.014-.271.03-.226-.246-.222a47.719,47.719,0,0,0-6.618.542Zm-1.637,3.275a.965.965,0,0,0,.053,1.22c.119.142.1.128.095-.027l-.049-1.13C3128.713,3111.136,3128.739,3111.1,3128.622,3111.238Zm.736,2.256.374-.056c.15-.022.13,0,.124-.154l-.358-8.431c-.089-2.105.36-4.608,2.257-5.852a3.328,3.328,0,0,1,1.72-.56,3.064,3.064,0,0,1,1.655.428,4.642,4.642,0,0,1,2.029,3.272,20.173,20.173,0,0,1,.2,2.706l.356,7.216c.011.212-.022.178.192.146l.3-.046c.189-.028.177-.016.167-.221l-.342-7.094a16.848,16.848,0,0,0-.25-2.73c-.476-2.237-1.816-4.4-4.33-4.339a3.793,3.793,0,0,0-1.875.565c-2.094,1.273-2.862,4.22-2.763,6.521l.365,8.488c.008.186-.01.169.172.142Zm.875-1.516a1.081,1.081,0,0,0-.007-.425c-.059-.262-.073-.237-.062.008l.018.421C3130.19,3112.183,3130.2,3112.185,3130.233,3111.978Zm6.874-2.018a.964.964,0,0,0,.042,1.134c.141.19.154.222.143-.006l-.053-1.07C3137.229,3109.823,3137.255,3109.761,3137.107,3109.96Zm1.639.715a1.086,1.086,0,0,0-.01-.441c-.056-.235-.073-.244-.062,0l.021.438C3138.7,3110.859,3138.708,3110.885,3138.746,3110.674Zm.069-1.084a1.255,1.255,0,0,1,.289.557,1.506,1.506,0,0,1-.112.985,1.784,1.784,0,0,0-.233.8c0,.191.027.152.209.124l4.4-.662c.237-.035.231-.013.418-.168l1.159-.96c.175-.155.206-.135.2-.4a6.527,6.527,0,0,0-.2-1.711c-.077-.262-.07-.223-.323-.257a54.052,54.052,0,0,0-5.852-.463c-.277-.007-.237-.051-.224.223l.075,1.542c.015.317,0,.18.19.394Zm-15.953,5.262a.3.3,0,0,0-.294.325l.13.906c.042.335.31.254.545.215l8.272-1.339c.226-.033.2,0,.182-.228l-.116-1.036c-.022-.2,0-.156-.209-.124l-8.511,1.279Zm11.208-1.369a.357.357,0,0,1,.309.388.336.336,0,0,1-.358.326.357.357,0,0,1-.309-.388.336.336,0,0,1,.357-.326Zm-.9,1.04a1.259,1.259,0,0,1-.14-1.084c.042-.117.086-.128-.095-.1l-.832.125c-.195.029-.167-.007-.145.189l.116,1.039c.03.182,0,.18.226.143l.778-.126c.271-.044.214,0,.091-.186Zm.271-1.083a.849.849,0,0,0,.211,1.051c.169.127.262.083.455.051l2.528-.409c.295-.048.256.01.223-.285l-.1-.892c-.027-.238.005-.193-.245-.156l-2.691.4a.469.469,0,0,0-.382.235Zm3.69-.544.1.926c.022.22.022.211.269.171l6.546-1.057c.245-.04.256-.078.229-.383l-.08-.646c0-.248-.144-.24-.344-.21l-6.569.988c-.213.032-.18-.006-.155.211Zm-14.7,1.524-.748-.422c-.337-.19-.272-.193-.221.2l2.261,17.249c.025.192.052.444.1.7.268,1.543,1.02,1.449,2.426,1.18.8-.154,1.622-.4,2.068-.51l18.091-4.482c1.637-.406,1.785-1.474,1.478-2.919l-3.032-14.292c-.057-.268-.007-.282-.207-.117l-.194.161c-.142.118-.207.155-.1.234a.592.592,0,0,1,.222.458l.082.661c.039.314.022.639-.346.739-.194.052-.067.121-.236.435l-.481.89c-.242.447-.422.459-.907.544l-2.8.437a.815.815,0,0,1-.783-.121,1.789,1.789,0,0,0-2.021.274c-.257.271-.217.322-.653.388l-5.241.8c-.474.073-.375.069-.811-.177a1.439,1.439,0,0,0-1.878.41c-.26.35-.1.333-.613.417l-3.052.5c-.321.052-.557.126-.838-.14l-.728-.691a1.062,1.062,0,0,1-.258-.347c-.058-.134-.059-.157-.225-.191a.57.57,0,0,1-.462-.555l-.139-.966a.556.556,0,0,1,.262-.572c.17-.105.221-.041-.021-.178Zm21.218-1.039-20.169,3.263c-.217.044-.1.2.027.313l.738.675c.138.124.379.081.534.055l3.052-.5c.342-.056.165.008.372-.27a1.813,1.813,0,0,1,2.358-.517c.3.166.177.2.577.136l5.242-.8c.3-.046.26-.088.436-.273a2.16,2.16,0,0,1,2.471-.348c.293.157.218.133.548.082l2.789-.437c.363-.064.467-.031.639-.351l.481-.891c.1-.183.058-.161-.094-.136Zm-23.369-.534a23.686,23.686,0,0,1-.4,5.863c-.417,2.77-.828,5.5.187,7.8a.189.189,0,0,1-.346.152c-1.059-2.4-.64-5.183-.214-8.007a24.143,24.143,0,0,0,.379-5.933c-.016-.158-.018-.174-.148-.2l-.3-.058c-.162-.031-.157,0-.214.2-.475,1.727-1.089,4.253-1.68,6.993s-1.134,5.563-1.455,7.709c-.17,1.142-.552,2.588.524,3.358a21.592,21.592,0,0,0,4.729,2.39,7.243,7.243,0,0,0,2.07.461c1,.073.52.021.282-.489a5.762,5.762,0,0,1-.346-1.585l-2.313-17.651c-.025-.193-.01-.2-.163-.308-.282-.2-.284-.527-.433-.782-.12-.205-.2-.239-.162.088Zm-.766-.758a3.619,3.619,0,0,0,.571.1c.192.036.175.073.077-.13a4.875,4.875,0,0,0-.32-.567c-.1-.145-.079-.156-.179,0a2.448,2.448,0,0,0-.208.419c-.037.1-.061.127.06.175Z" transform="translate(-3115.496 -3097.4)" stroke="#000" stroke-width="0.4"/>
  </g>
</svg>
