<svg id="Groupe_8585" data-name="Groupe 8585" xmlns="http://www.w3.org/2000/svg" width="42.862" height="21.431" viewBox="0 0 42.862 21.431">
  <g id="Groupe_8583" data-name="Groupe 8583">
    <path id="Tracé_9768" data-name="Tracé 9768" d="M2,29v7.787a1.545,1.545,0,0,0,1.5,1.643H38.218a5.407,5.407,0,0,0,1.072-.071h.071a7.074,7.074,0,0,0,5.5-7.144V22.858c0-.929-.429-2.215-2.286-3.5a10.454,10.454,0,0,0-3.5-1.5A25.046,25.046,0,0,0,32.36,17a22.24,22.24,0,0,0-8.644,1.572c-2.5,1.072-3.858,2.643-3.858,4.286v4.5H3.572A1.646,1.646,0,0,0,2,29Zm41.576-6.144h0c0,1.143-1.072,1.929-1.929,2.429A14.709,14.709,0,0,1,36.5,27.073a30.909,30.909,0,0,1-6.286.286,22.208,22.208,0,0,1-3.143-.429A13.984,13.984,0,0,1,23,25.429c-.857-.5-2.072-1.357-2.072-2.5,0-2.143,4.643-4.5,11.287-4.5a22.943,22.943,0,0,1,6.429.857,7.012,7.012,0,0,1,3.143,1.357c.143.143.214.214.286.214C43.362,21.643,43.576,22.358,43.576,22.858ZM23.645,27.215c.143.071.357.143.5.214H21V25.572A11.236,11.236,0,0,0,23.645,27.215ZM12.358,28.787H32.289a25.93,25.93,0,0,0,6.215-.714,10.941,10.941,0,0,0,5.072-2.5h0v5.643a6.057,6.057,0,0,1-1,3.429v-1a.7.7,0,0,0-.643-.714.66.66,0,0,0-.643.714V36a3.78,3.78,0,0,1-1.5.786V34.645a.7.7,0,0,0-.643-.714.66.66,0,0,0-.643.714v2.429H37V34.645a.7.7,0,0,0-.643-.714.66.66,0,0,0-.643.714v2.429h-1.5V34.645a.7.7,0,0,0-.643-.714.66.66,0,0,0-.643.714v2.429h-1.5V34.645a.7.7,0,0,0-.643-.714.66.66,0,0,0-.643.714v2.429h-1.5V33.645A.7.7,0,0,0,28,32.93a.66.66,0,0,0-.643.714v3.429h-1.5V34.645a.7.7,0,0,0-.643-.714.66.66,0,0,0-.643.714v2.429h-1.5V34.645a.7.7,0,0,0-.643-.714.66.66,0,0,0-.643.714v2.429h-1.5V34.645a.7.7,0,0,0-.643-.714.66.66,0,0,0-.643.714v2.429H17.5V34.645a.7.7,0,0,0-.643-.714.66.66,0,0,0-.643.714v2.429h-1.5V33.645a.7.7,0,0,0-.643-.714.66.66,0,0,0-.643.714v3.429h-1.5V28.787ZM3.286,29c0-.143.071-.286.214-.286h7.644V37H3.5c-.143,0-.214-.143-.214-.286Z" transform="translate(-2 -17)"/>
  </g>
  <g id="Groupe_8584" data-name="Groupe 8584" transform="translate(23.145 3.072)">
    <path id="Tracé_9769" data-name="Tracé 9769" d="M41.544,27.015c-3.429,0-7.144-.929-7.144-2.857S38.115,21.3,41.544,21.3s7.144.929,7.144,2.857S44.973,27.015,41.544,27.015Zm0-4.286c-3.715,0-5.715,1.072-5.715,1.429s2,1.429,5.715,1.429,5.715-1.072,5.715-1.429S45.33,22.729,41.544,22.729Z" transform="translate(-34.4 -21.3)"/>
  </g>
</svg>
