<svg id="Group_10439" data-name="Group 10439" xmlns="http://www.w3.org/2000/svg" width="39.8" height="39.509" viewBox="0 0 39.8 39.509">
  <path id="Path_10523" data-name="Path 10523" d="M384.432,295.171a11.526,11.526,0,0,1-11.5-11.511,1.176,1.176,0,1,0-2.345,0,11.525,11.525,0,0,1-11.526,11.511,1.176,1.176,0,0,0,0,2.345,11.526,11.526,0,0,1,11.511,11.51,1.176,1.176,0,0,0,2.345,0,11.525,11.525,0,0,1,11.518-11.51,1.176,1.176,0,0,0,0-2.345Zm-12.687,8.279a13.98,13.98,0,0,0-7.111-7.111,13.966,13.966,0,0,0,7.111-7.1,13.931,13.931,0,0,0,7.111,7.1A13.944,13.944,0,0,0,371.745,303.451Z" transform="translate(-351.844 -276.541)"/>
  <path id="Path_10525" data-name="Path 10525" d="M451.471,239.51a1.168,1.168,0,0,0-1.176,1.168v1.589a1.176,1.176,0,0,0,2.345,0v-1.589a1.161,1.161,0,0,0-1.168-1.168Z" transform="translate(-431.572 -239.51)"/>
  <path id="Path_10526" data-name="Path 10526" d="M451.471,501.089a1.168,1.168,0,0,0-1.176,1.161v1.589h0a1.176,1.176,0,0,0,2.345,0V502.25a1.161,1.161,0,0,0-1.168-1.161Z" transform="translate(-431.572 -465.411)"/>
  <path id="Path_10527" data-name="Path 10527" d="M578.593,376.076H577a1.176,1.176,0,0,0,0,2.345h1.589a1.176,1.176,0,1,0,0-2.345Z" transform="translate(-540.064 -357.445)"/>
  <path id="Path_10528" data-name="Path 10528" d="M315.872,376.075H314.29a1.176,1.176,0,1,0,0,2.345h1.581a1.176,1.176,0,1,0,0-2.345Z" transform="translate(-313.02 -357.445)"/>
</svg>
