<svg xmlns="http://www.w3.org/2000/svg" width="165.836" height="179.809" viewBox="0 0 165.836 179.809">
  <path id="Union_1" data-name="Union 1" d="M76.282,160.4a1.7,1.7,0,0,1-.294-2.385l4.313-5.531.63-.807-1.019.093a69.326,69.326,0,0,1-27-2.85A70.176,70.176,0,0,1,31.431,25.913a1.688,1.688,0,0,1,.778-.328l.031,0a1.7,1.7,0,0,1,1.228,3.035A67.134,67.134,0,0,0,12.443,55.348a66.725,66.725,0,0,0,10.3,69.725,66.893,66.893,0,0,0,30.977,20.575,66.037,66.037,0,0,0,25.63,2.78l1.12-.1-.887-.695-5.393-4.22a1.7,1.7,0,0,1-.293-2.384,1.679,1.679,0,0,1,1.125-.636l.017,0a1.683,1.683,0,0,1,1.239.346L85.8,148.19a1.7,1.7,0,0,1,.293,2.384l-7.436,9.534a1.7,1.7,0,0,1-1.13.641,1.652,1.652,0,0,1-.2.012A1.705,1.705,0,0,1,76.282,160.4Zm28.36-18.916a41.073,41.073,0,0,1-6.71-.566,31.166,31.166,0,0,1-5.8.572A23.943,23.943,0,0,1,77.394,136.7a22.288,22.288,0,0,1-3.076-2.866c-.341.011-.681.031-1.024.031A53.342,53.342,0,0,1,22.592,96.8c-.013-.031-.035-.051-.048-.085s-.005-.068-.016-.1A53.252,53.252,0,1,1,124.184,64.848l.007.023a53.518,53.518,0,0,1-.533,32.99,37.641,37.641,0,0,1,7.645,1.453,1.907,1.907,0,0,1,1.2,1.205,39.017,39.017,0,0,1,1.661,10.949c.281-.823.543-1.6.785-2.331a70.533,70.533,0,0,0,4.567-17.327,66.835,66.835,0,0,0-47.684-74.08,66.119,66.119,0,0,0-26.385-2.047,1.685,1.685,0,0,1-.5-.014l-.35.787,5.56,4.351a1.7,1.7,0,1,1-2.087,2.677l-9.522-7.452a1.7,1.7,0,0,1-.293-2.384l7.435-9.533a1.679,1.679,0,0,1,1.125-.636l.017,0a1.683,1.683,0,0,1,1.239.346,1.7,1.7,0,0,1,.292,2.383l-4.342,5.567.53.679a1.685,1.685,0,0,1,.485-.135,70.138,70.138,0,0,1,72.8,97.545,83.033,83.033,0,0,1-4.645,10.36,27.541,27.541,0,0,1-7.288,13.008,29.279,29.279,0,0,1-20.383,8.265Q105.082,141.5,104.642,141.484ZM71.572,111.45c-.329,3.008-.787,12.361,5,19.226a18.34,18.34,0,0,0,3.118,2.986,21.984,21.984,0,0,0,17.876,3.461l.007,0h0a31.361,31.361,0,0,0,3.517-.907l-14.836-11.25a1.9,1.9,0,0,1,2.3-3.037l14.839,11.253a29.093,29.093,0,0,0-1.52-10.54,19.764,19.764,0,0,0-6.63-9.3,2.029,2.029,0,0,1-.186-.165,20.1,20.1,0,0,0-12.371-3.947A30.831,30.831,0,0,0,71.572,111.45Zm42.049,6.783a1.907,1.907,0,0,1,0,2.694l-6.692,6.7a33.574,33.574,0,0,1-.085,9.478c-.006.032-.023.059-.031.092s-.023.064-.032.1a1.912,1.912,0,0,1-.105.313,24.944,24.944,0,0,0,16.54-7.072c9.8-9.822,6.933-24.109,5.951-27.876a37.352,37.352,0,0,0-8.234-1.158,26.23,26.23,0,0,0-19.6,7.118,23.677,23.677,0,0,0-1.592,1.792c-.134.166-.265.336-.394.5s-.261.378-.4.565c.228.205.421.44.64.653.311.3.617.607.91.927.431.471.833.967,1.224,1.472.26.337.526.666.769,1.018.4.584.762,1.2,1.114,1.829.176.314.371.612.535.936a25.633,25.633,0,0,1,1.309,3.047c.214.6.4,1.2.564,1.789l4.913-4.922a1.9,1.9,0,0,1,2.689,0ZM68.256,101.945c-.828,3.271-3.921,7.16-13.978,7.16-5.478,0-10.041,2.914-13.61,8.594a49.183,49.183,0,0,0,30.783,12.324c-.063-.106-.113-.215-.175-.322-.174-.3-.333-.6-.491-.9s-.313-.608-.457-.914-.292-.634-.426-.951c-.125-.294-.241-.588-.353-.882-.124-.324-.245-.648-.355-.971-.1-.289-.184-.575-.271-.862-.1-.324-.2-.646-.282-.967-.076-.284-.138-.564-.2-.846-.074-.317-.153-.634-.215-.946-.057-.284-.1-.56-.148-.84-.086-.5-.161-.994-.221-1.477-.042-.336-.088-.676-.119-1-.026-.272-.04-.527-.059-.79s-.041-.539-.054-.8-.017-.484-.023-.725-.015-.507-.017-.748c0-.223,0-.431,0-.644,0-.24.006-.475.013-.7.006-.192.014-.371.022-.551.011-.22.022-.429.034-.631.011-.161.021-.314.033-.463.015-.2.031-.373.048-.547.012-.123.022-.242.035-.353.019-.177.037-.327.056-.473.01-.077.019-.158.029-.226.02-.148.037-.261.053-.365l.017-.113c.018-.115.031-.194.038-.227a1.909,1.909,0,0,1,1.027-1.36c.04-.02.135-.067.279-.133l.154-.068c.124-.056.248-.112.423-.186.1-.045.24-.1.362-.148.161-.067.311-.129.5-.2.148-.058.325-.12.491-.181.205-.076.4-.149.63-.229.193-.068.407-.134.617-.2.241-.079.475-.157.737-.236.232-.069.481-.136.726-.2.275-.077.545-.154.839-.228.265-.067.544-.127.822-.191.306-.068.607-.138.929-.2.294-.058.6-.108.9-.16.332-.057.662-.112,1.008-.161.319-.044.645-.078.974-.114.357-.039.712-.075,1.079-.1.338-.025.68-.039,1.025-.052.377-.015.755-.026,1.141-.026.354,0,.709.012,1.068.025.394.014.788.037,1.189.069.177.014.349.012.527.031-1.991-2.488-3.9-4.574-5.346-6.06A5.951,5.951,0,0,0,75.8,97.676H74.111l-.15,0A5.951,5.951,0,0,0,68.256,101.945ZM53.93,34.967c6.738,4.64,13.586,11.479,13.659,20.138a10,10,0,0,1-9.343,10.032c-4.761.321-7.505,1.811-8.151,4.424a15.61,15.61,0,0,0-.009,6.552c.574,3.89,1.169,7.911-4.3,13.385-2.983,2.989-8.264,4.525-13.854,6.152-1.739.506-3.49,1.04-5.182,1.6A49.635,49.635,0,0,0,37.86,115.033c4.224-6.362,9.85-9.738,16.418-9.738,4.2,0,9.394-.743,10.289-4.277a9.67,9.67,0,0,1,9.544-7.151H75.8a9.733,9.733,0,0,1,6.984,2.928A85.6,85.6,0,0,1,91.144,106.8c.274.1.546.224.819.333.373.15.744.305,1.116.476.422.2.841.414,1.26.64.369.2.736.4,1.1.624.155.094.312.165.467.264.141-.194.3-.378.448-.569s.29-.373.439-.558a27.314,27.314,0,0,1,1.852-2.085c.429-.43.866-.836,1.308-1.225.153-.134.311-.255.464-.384.292-.245.581-.489.877-.717.191-.147.384-.281.576-.421.264-.192.526-.385.792-.564.212-.143.427-.274.64-.41.249-.158.5-.316.747-.463.229-.135.459-.26.688-.387s.475-.261.714-.382.483-.24.725-.355c.227-.107.453-.213.681-.314.253-.112.506-.219.76-.322q.324-.134.65-.257.392-.15.785-.286c.207-.071.413-.139.62-.206.27-.086.539-.171.808-.249.2-.057.391-.11.586-.162.276-.075.553-.148.828-.214.184-.043.365-.083.549-.123.283-.062.565-.125.845-.179.167-.031.33-.058.5-.087.293-.053.585-.1.874-.148.14-.022.278-.037.417-.056.309-.042.616-.086.921-.119.084-.009.165-.014.248-.022,1-.1,1.976-.158,2.907-.179.177,0,.357-.011.531-.013a49.6,49.6,0,0,0,1.286-30.231,100.406,100.406,0,0,1-11.644-.881c-7.092-1.012-11.184,8.759-12.994,14.673A9.844,9.844,0,1,1,78.6,73.068a24.922,24.922,0,0,0,3.9-13.126,53.946,53.946,0,0,1,7.088-26.16A49.261,49.261,0,0,0,53.93,34.967ZM23.853,80.533a49.457,49.457,0,0,0,1.765,13.082c1.733-.574,3.505-1.115,5.257-1.625,4.884-1.42,9.934-2.89,12.227-5.187,4.111-4.118,3.739-6.64,3.222-10.133A19.246,19.246,0,0,1,46.4,68.64c.748-3.023,3.368-6.748,11.587-7.3a6.188,6.188,0,0,0,5.8-6.2C63.719,47.332,56.422,41,49.935,36.9A49.578,49.578,0,0,0,23.853,80.533ZM86.3,59.942a28.717,28.717,0,0,1-4.472,15.142,6.04,6.04,0,0,0,2.66,8.738,5.875,5.875,0,0,0,2.458.521A6.032,6.032,0,0,0,92.7,80.128c3.8-12.4,9.738-18.375,17.167-17.329a93.9,93.9,0,0,0,9.9.814A49.754,49.754,0,0,0,93.151,35.191,50.355,50.355,0,0,0,86.3,59.942Z" transform="matrix(0.985, -0.174, 0.174, 0.985, -3.811, 21.817)" fill="#dbd4ce" stroke="#fff" stroke-width="0.5"/>
</svg>
