<svg xmlns="http://www.w3.org/2000/svg" width="28.76" height="52.415" viewBox="0 0 28.76 52.415">
  <g id="Groupe_10149" data-name="Groupe 10149" transform="translate(21733.15 -5175.85)">
    <g id="Groupe_10148" data-name="Groupe 10148" transform="translate(-21733 5176)">
      <path id="Tracé_10299" data-name="Tracé 10299" d="M-319.988,306.415h-19.565A4.479,4.479,0,0,1-344,301.968V258.747a4.479,4.479,0,0,1,4.447-4.447h19.565a4.479,4.479,0,0,1,4.447,4.447v43.221A4.441,4.441,0,0,1-319.988,306.415Zm-19.565-51.522a3.846,3.846,0,0,0-3.854,3.854v43.221a3.846,3.846,0,0,0,3.854,3.854h19.565a3.846,3.846,0,0,0,3.854-3.854V258.747a3.846,3.846,0,0,0-3.854-3.854Zm9.783,49.743a2.783,2.783,0,0,1-2.787-2.787,2.783,2.783,0,0,1,2.787-2.787,2.783,2.783,0,0,1,2.787,2.787A2.746,2.746,0,0,1-329.771,304.636Zm0-4.98a2.228,2.228,0,0,0-2.194,2.194,2.228,2.228,0,0,0,2.194,2.194,2.152,2.152,0,0,0,2.194-2.194A2.228,2.228,0,0,0-329.771,299.656Zm12.273-1.719h-24.486V261.889H-317.5Zm-23.893-.593h23.3V262.482h-23.3Zm16.245-37.767h-9.19a.965.965,0,0,1-1.008-1.008.965.965,0,0,1,1.008-1.008h9.19a.965.965,0,0,1,1.008,1.008A.965.965,0,0,1-325.146,259.577Zm-9.19-1.423a.405.405,0,0,0-.415.415.405.405,0,0,0,.415.415h9.19a.405.405,0,0,0,.415-.415.405.405,0,0,0-.415-.415Z" transform="translate(344 -254.3)" fill="#000100" stroke="#000" stroke-width="0.3"/>
    </g>
    <g id="Groupe_8658" data-name="Groupe 8658" transform="translate(-21724.219 5195.876)">
      <path id="Tracé_9542" data-name="Tracé 9542" d="M649.458,309.893,645.3,303.82l-.074-.108H644.05V315.92H645.3v-9.888L648.7,311l.756,1.105.757-1.105Z" transform="translate(-644.05 -303.558)"/>
      <path id="Tracé_9543" data-name="Tracé 9543" d="M653.266,311.983l-2.07-3.014-.759-1.1-2.941-4.279H645.98l3.7,5.385.757,1.1,2.828,4.114,1.209,1.759h.04V313.8Z" transform="translate(-643.621 -303.586)"/>
      <path id="Tracé_9544" data-name="Tracé 9544" d="M652.327,305.916v4.457l1.25,1.785v-8.446h-1.25l-2.129,3.106.765,1.092Z" transform="translate(-642.682 -303.558)"/>
    </g>
  </g>
</svg>
