<svg id="Groupe_10137" data-name="Groupe 10137" xmlns="http://www.w3.org/2000/svg" width="19.962" height="19.296" viewBox="0 0 19.962 19.296">
  <g id="Groupe_10122" data-name="Groupe 10122" transform="translate(0 0)">
    <path id="Tracé_10344" data-name="Tracé 10344" d="M17.989,0H5.3A1.975,1.975,0,0,0,3.327,1.973V4.658H1.973A1.975,1.975,0,0,0,0,6.631v7.033a1.975,1.975,0,0,0,1.973,1.973H3.992v3.327a.331.331,0,0,0,.213.309.307.307,0,0,0,.12.023.321.321,0,0,0,.246-.11L7.8,15.637h6.864a1.975,1.975,0,0,0,1.973-1.973V10.979h1.354a1.975,1.975,0,0,0,1.973-1.973V1.973A1.975,1.975,0,0,0,17.989,0ZM15.969,13.664a1.308,1.308,0,0,1-1.307,1.307H7.652a.333.333,0,0,0-.246.11L4.658,18.1V15.3a.334.334,0,0,0-.333-.333H1.973A1.308,1.308,0,0,1,.665,13.664V6.631A1.308,1.308,0,0,1,1.973,5.323H14.662a1.319,1.319,0,0,1,.732.223,1.3,1.3,0,0,1,.576,1.085v7.033ZM19.3,9.006a1.308,1.308,0,0,1-1.307,1.307H16.635V6.631h0a1.975,1.975,0,0,0-1.387-1.883q-.095-.03-.19-.05a1.925,1.925,0,0,0-.4-.04H3.992V1.973A1.308,1.308,0,0,1,5.3.665H17.989A1.308,1.308,0,0,1,19.3,1.973Z" stroke="#fff"/>
    <path id="Tracé_10345" data-name="Tracé 10345" d="M11.333,24.685H15.99a.333.333,0,1,0,0-.665H11.333a.333.333,0,0,0,0,.665Z" transform="translate(-7.34 -16.029)" stroke="#fff"/>
    <path id="Tracé_10346" data-name="Tracé 10346" d="M20.315,30.02H11.333a.333.333,0,0,0,0,.665h8.983a.333.333,0,0,0,0-.665Z" transform="translate(-7.34 -20.032)" stroke="#fff"/>
    <path id="Tracé_10347" data-name="Tracé 10347" d="M20.315,36.02H11.333a.333.333,0,1,0,0,.665h8.983a.333.333,0,0,0,0-.665Z" transform="translate(-7.34 -24.036)" stroke="#fff"/>
  </g>
</svg>
