<svg xmlns="http://www.w3.org/2000/svg" width="17.134" height="15.74" viewBox="0 0 17.134 15.74">
  <path id="Tracé_9929" data-name="Tracé 9929" d="M41.816,38.566a1.584,1.584,0,0,0-.745-.536l-.209-.1c-.02,0-2.269-1.109-2.7-1.264a1.117,1.117,0,0,0-1.463.381c-.219.337-.883,1.1-1.19,1.45-.027.03-.047.044-.047.047a.553.553,0,0,1-.2-.071c-.067-.034-.165-.074-.28-.125a9.574,9.574,0,0,1-2.734-1.686,10.973,10.973,0,0,1-2.06-2.528l-.047-.054a1.264,1.264,0,0,1,.111-.118c.135-.131.28-.307.418-.472l.2-.229a2.788,2.788,0,0,0,.4-.637l.051-.1a1.183,1.183,0,0,0-.03-1.126c-.061-.118-.462-1.079-.755-1.78l-.428-1.028c-.361-.853-.826-.961-1.257-.964h-.829a1.932,1.932,0,0,0-1.406.641l-.071.074a4.72,4.72,0,0,0-1.413,3.459,7.78,7.78,0,0,0,1.686,4.261l.057.084a17.268,17.268,0,0,0,6.786,5.849,22.684,22.684,0,0,0,2.262.823,5.532,5.532,0,0,0,1.655.249,6.473,6.473,0,0,0,1.011-.081,4.489,4.489,0,0,0,3.034-2.144,3.413,3.413,0,0,0,.182-2.255Zm-1.133,1.908a3.616,3.616,0,0,1-2.222,1.493,4.983,4.983,0,0,1-2.225-.135,22.465,22.465,0,0,1-2.168-.789,16.206,16.206,0,0,1-6.355-5.505c-.037-.054-.064-.091-.084-.115a6.952,6.952,0,0,1-1.48-3.644A3.729,3.729,0,0,1,27.3,29.019l.081-.084a.934.934,0,0,1,.674-.317h.836c.108,0,.172,0,.317.337.108.253.266.627.432,1.011.442,1.059.715,1.713.782,1.847s.054.172.034.212l-.057.108a1.615,1.615,0,0,1-.263.425l-.206.246a5.059,5.059,0,0,1-.337.394,1.055,1.055,0,0,0-.249,1.4A11.931,11.931,0,0,0,31.6,37.37a10.616,10.616,0,0,0,3,1.871l.233.1a1.109,1.109,0,0,0,1.443-.212c.2-.219.984-1.129,1.271-1.551.027-.04.047-.061.051-.067a1.176,1.176,0,0,1,.236.067c.3.108,2.1.974,2.6,1.22l.219.108c.1.047.226.108.3.148A3.678,3.678,0,0,1,40.683,40.474Z" transform="translate(-24.987 -27.47)" stroke="#fff"/>
</svg>
