<svg xmlns="http://www.w3.org/2000/svg" width="22.12" height="20.218" viewBox="0 0 22.12 20.218">
  <g id="Groupe_8579" data-name="Groupe 8579" transform="translate(-6.632 -8.547)">
    <path id="Tracé_9616" data-name="Tracé 9616" d="M26.849,10.3h-1.7V9.33a.642.642,0,0,0-1.278,0V10.3H11.517V9.33a.642.642,0,0,0-1.278,0V10.3h-1.7a1.636,1.636,0,0,0-1.7,1.554V27.011a1.636,1.636,0,0,0,1.7,1.554H26.849a1.635,1.635,0,0,0,1.7-1.554V11.856A1.636,1.636,0,0,0,26.849,10.3Zm.426,16.71a.409.409,0,0,1-.426.389H8.536a.409.409,0,0,1-.426-.389V15.353H27.275Zm0-12.824H8.11V11.856a.409.409,0,0,1,.426-.389h1.7v.971a.642.642,0,0,0,1.278,0v-.971H23.867v.971a.642.642,0,0,0,1.278,0v-.971h1.7a.409.409,0,0,1,.426.389Z" transform="translate(0)" stroke="#fff"/>
    <circle id="Ellipse_15" data-name="Ellipse 15" cx="0.59" cy="0.59" r="0.59" transform="translate(13.719 17.356)"/>
    <circle id="Ellipse_16" data-name="Ellipse 16" cx="0.59" cy="0.59" r="0.59" transform="translate(16.97 17.356)"/>
    <circle id="Ellipse_17" data-name="Ellipse 17" cx="0.59" cy="0.59" r="0.59" transform="translate(20.221 17.356)"/>
    <circle id="Ellipse_18" data-name="Ellipse 18" cx="0.59" cy="0.59" r="0.59" transform="translate(24.423 17.356)"/>
    <circle id="Ellipse_19" data-name="Ellipse 19" cx="0.59" cy="0.59" r="0.59" transform="translate(10.468 20.306)"/>
    <circle id="Ellipse_20" data-name="Ellipse 20" cx="0.59" cy="0.59" r="0.59" transform="translate(13.719 20.306)"/>
    <circle id="Ellipse_21" data-name="Ellipse 21" cx="0.59" cy="0.59" r="0.59" transform="translate(16.97 20.306)"/>
    <circle id="Ellipse_22" data-name="Ellipse 22" cx="0.59" cy="0.59" r="0.59" transform="translate(20.221 20.306)"/>
    <circle id="Ellipse_23" data-name="Ellipse 23" cx="0.59" cy="0.59" r="0.59" transform="translate(24.423 20.306)"/>
    <circle id="Ellipse_24" data-name="Ellipse 24" cx="0.59" cy="0.59" r="0.59" transform="translate(10.468 23.256)"/>
    <circle id="Ellipse_25" data-name="Ellipse 25" cx="0.59" cy="0.59" r="0.59" transform="translate(13.719 23.256)"/>
    <circle id="Ellipse_26" data-name="Ellipse 26" cx="0.59" cy="0.59" r="0.59" transform="translate(16.97 23.256)"/>
  </g>
</svg>
