<svg width="23" height="21" viewBox="0 0 23 21" fill="none" xmlns="http://www.w3.org/2000/svg">
<path d="M15.755 0.151H15.644C14.0193 0.244852 12.4808 0.912922 11.303 2.036L11.161 2.172L11.02 2.037C9.8396 0.91227 8.2978 0.243802 6.66999 0.151H6.55899C4.88085 0.15584 3.27112 0.816653 2.07361 1.9923C0.876104 3.16795 0.185748 4.76523 0.149994 6.443C0.153263 7.64034 0.39886 8.82463 0.87199 9.92454C1.34512 11.0244 2.03599 12.0172 2.90299 12.843C5.79499 15.63 10.646 19.728 10.691 19.764L11.206 20.2L11.715 19.761C11.759 19.724 16.578 15.583 19.415 12.844C20.2819 12.0181 20.9729 11.0254 21.4461 9.92549C21.9194 8.82562 22.1653 7.64137 22.169 6.444C22.1327 4.76544 21.4415 3.16761 20.2431 1.99177C19.0446 0.81593 17.4339 0.155307 15.755 0.151ZM18.327 11.807C16.117 13.938 12.701 16.922 11.334 18.107L11.2 18.222L11.065 18.108C9.68699 16.931 6.23799 13.961 4.00099 11.808C3.27329 11.1151 2.69346 10.2819 2.29645 9.35885C1.89944 8.43576 1.69349 7.44184 1.69099 6.437C1.71866 5.15151 2.24796 3.92782 3.16579 3.02736C4.08363 2.12691 5.31721 1.6211 6.60299 1.618H6.68599V1.773L6.69599 1.62C7.45368 1.67307 8.19118 1.88798 8.85877 2.25023C9.52636 2.61249 10.1085 3.11368 10.566 3.72L11.166 4.439L11.766 3.713C12.2226 3.10814 12.8036 2.60824 13.4698 2.24701C14.136 1.88578 14.872 1.67163 15.628 1.619H15.714C17.0007 1.61895 18.2363 2.12278 19.1561 3.02258C20.0759 3.92238 20.6068 5.14659 20.635 6.433C20.6334 7.43823 20.4281 8.43272 20.0314 9.35637C19.6347 10.28 19.0549 11.1137 18.327 11.807Z" fill="white" stroke="white" stroke-width="0.3"/>
</svg>
