<svg xmlns="http://www.w3.org/2000/svg" width="49.91" height="47.934" viewBox="0 0 49.91 47.934">
  <path id="Tracé_9946" data-name="Tracé 9946" d="M49.41,14.625v-.494A14.232,14.232,0,0,0,45.161,4.3l-.049-.049A14.664,14.664,0,0,0,34.785,0h0A14.406,14.406,0,0,0,24.7,4.052,14.406,14.406,0,0,0,14.625,0,14.7,14.7,0,0,0,4.249,4.3a14.282,14.282,0,0,0-4.2,9.783c-.049,0-.049.049-.049.1v12.8a1.006,1.006,0,0,0,.3.741L12.945,40.368v5.979a1.038,1.038,0,0,0,2.075,0V39.923a1.006,1.006,0,0,0-.3-.741L2.075,26.583V15.416A3.15,3.15,0,0,1,4.2,18.381v5.633a1.006,1.006,0,0,0,.3.741l1.976,1.976,6.522,6.522a1.006,1.006,0,0,0,.741.3,1.089,1.089,0,0,0,.741-.3,1.074,1.074,0,0,0,0-1.482L8.746,26.039a2.072,2.072,0,0,1,.791-.2,2.719,2.719,0,0,1,1.729.593l8.153,7.313V46.3a1.038,1.038,0,0,0,2.075,0v-4.15l2.52,2.273a.925.925,0,0,0,.692.247,1.181,1.181,0,0,0,.692-.247l2.52-2.223v4.15a1.013,1.013,0,0,0,1.038,1.038h0a1.013,1.013,0,0,0,1.038-1.038V33.8l8.2-7.313a2.388,2.388,0,0,1,1.729-.593,2.072,2.072,0,0,1,.791.2l-5.781,5.682a1.074,1.074,0,0,0,0,1.482,1.006,1.006,0,0,0,.741.3,1.089,1.089,0,0,0,.741-.3l6.522-6.522,1.976-1.976a1.006,1.006,0,0,0,.3-.741V18.381a3.15,3.15,0,0,1,2.125-2.965V26.583L34.686,39.232a1.006,1.006,0,0,0-.3.741V46.4a1.013,1.013,0,0,0,1.038,1.038h0A1.013,1.013,0,0,0,36.465,46.4V40.417l12.649-12.6a1.006,1.006,0,0,0,.3-.741v-12.2C49.41,14.774,49.41,14.675,49.41,14.625Zm-4.743.1a5.151,5.151,0,0,0-1.532,3.706v5.188l-.988.988a4.247,4.247,0,0,0-2.174-.741A4.51,4.51,0,0,0,36.761,25l-8.5,7.56a1.166,1.166,0,0,0-.346.791v6.077L24.7,42.246,21.493,39.38V33.3a1.166,1.166,0,0,0-.346-.791L12.6,24.9a4.51,4.51,0,0,0-3.212-1.136,4.247,4.247,0,0,0-2.174.741l-.988-.988V18.381a5.242,5.242,0,0,0-4.1-5.089,12.512,12.512,0,0,1,3.607-7.56,12.525,12.525,0,0,1,17.689,0l.494.494a1.074,1.074,0,0,0,1.482,0l.494-.494a12.365,12.365,0,0,1,8.844-3.656h0A12.365,12.365,0,0,1,43.58,5.732l.049.049h0a12.594,12.594,0,0,1,3.558,7.56A5.126,5.126,0,0,0,44.667,14.724Z" transform="translate(0.25 0.25)" stroke="#fff" stroke-width="0.5"/>
</svg>
