<svg xmlns="http://www.w3.org/2000/svg" width="22.747" height="24.529" viewBox="0 0 22.747 24.529">
  <g id="Groupe_645" data-name="Groupe 645" transform="translate(6916.085 -2016.096)">
    <path id="Tracé_2170" data-name="Tracé 2170" d="M6.8,1.5a5.3,5.3,0,1,0,5.3,5.3A5.308,5.308,0,0,0,6.8,1.5M6.8,0A6.8,6.8,0,1,1,0,6.8,6.8,6.8,0,0,1,6.8,0Z" transform="translate(-6911.515 2016.096)"/>
    <path id="Tracé_2169" data-name="Tracé 2169" d="M11.373,1.5C6.4,1.5,2.268,5.533,1.6,10.756H21.151C20.479,5.533,16.35,1.5,11.373,1.5m0-1.5c6.281,0,11.373,5.487,11.373,12.256H0C0,5.487,5.092,0,11.373,0Z" transform="translate(-6916.085 2028.369)"/>
  </g>
</svg>
