<?xml version="1.0" encoding="utf-8"?>
<svg version="1.1" id="Layer_1" x="0px" y="0px" viewBox="0 0 970 205" style="enable-background:new 0 0 970 205;" xmlns="http://www.w3.org/2000/svg" fill="white">
  <g transform="matrix(1, 0, 0, 1, -13.849316, -398.698639)">
    <g>
      <g>
        <polygon points="58.47,450.02 27.62,404.96 27.07,404.16 18.35,404.16 18.35,407.83 18.35,494.73 27.62,494.73 27.62,421.37 &#10;&#9;&#9;&#9;&#9;52.86,458.23 58.47,466.43 64.09,458.23 &#9;&#9;&#9;"/>
        <polygon points="89.91,465.32 74.55,442.96 68.92,434.77 47.1,403.02 35.85,403.02 63.31,442.97 68.93,451.16 89.91,481.68 &#10;&#9;&#9;&#9;&#9;98.88,494.73 99.18,494.73 99.18,478.8 &#9;&#9;&#9;"/>
        <polygon points="89.91,420.51 89.91,453.58 99.18,466.82 99.18,406.97 99.18,404.16 90.07,404.16 89.91,404.16 74.11,427.2 &#10;&#9;&#9;&#9;&#9;79.79,435.3 &#9;&#9;&#9;"/>
      </g>
      <path d="M194.29,403.02c-25.64,0-46.43,20.79-46.43,46.43c0,25.64,20.79,46.43,46.43,46.43s46.43-20.79,46.43-46.43 C240.72,423.8,219.93,403.02,194.29,403.02z M194.29,485.56c-19.92,0-36.12-16.2-36.12-36.12c0-19.92,16.2-36.12,36.12-36.12 s36.12,16.2,36.12,36.12C230.41,469.36,214.21,485.56,194.29,485.56z"/>
      <path d="M448.76,403.02c-25.64,0-46.43,20.79-46.43,46.43c0,25.64,20.79,46.43,46.43,46.43c25.64,0,46.43-20.79,46.43-46.43 C495.19,423.8,474.4,403.02,448.76,403.02z M448.76,485.56c-19.92,0-36.12-16.2-36.12-36.12c0-19.92,16.2-36.12,36.12-36.12 c19.92,0,36.12,16.2,36.12,36.12C484.88,469.36,468.68,485.56,448.76,485.56z"/>
      <polygon points="344.65,404.16 344.83,468.86 290.37,404.16 289.72,404.16 284.21,404.16 284.21,407.83 284.21,494.73 &#10;&#9;&#9;&#9;294.82,494.73 294.82,429.01 350.21,494.73 355.96,494.73 355.96,404.16 &#9;&#9;"/>
      <path d="M576.11,457.18h26.42v21.37c-5.98,4.39-13.34,7-21.31,7c-19.92,0-36.12-16.2-36.12-36.12c0-19.92,16.2-36.12,36.12-36.12 c11.12,0,21.07,5.05,27.7,12.98l6.71-8.02c-8.49-9.37-20.76-15.26-34.41-15.26c-25.64,0-46.43,20.79-46.43,46.43 c0,25.64,20.79,46.43,46.43,46.43c12.91,0,24.58-5.27,32.99-13.77v-17.99v-18.06h-38.1V457.18z"/>
      <polygon points="973.09,404.16 937.78,450.13 902.46,404.16 895.37,404.16 895.37,494.73 907.14,494.73 907.32,429.93 &#10;&#9;&#9;&#9;936.52,467.71 936.52,467.71 937.78,469.33 939.03,467.71 939.03,467.71 968.23,429.93 968.41,494.73 980.18,494.73 &#10;&#9;&#9;&#9;980.18,404.16 &#9;&#9;"/>
      <polygon points="778.84,494.73 765.22,494.73 807.49,404.16 815.27,404.16 858.94,494.73 844.75,494.73 811.53,423.06 &#9;&#9;"/>
      <path d="M723.04,494.73h14.09l-29.23-33.11c14.01-1.99,24.78-14.02,24.78-28.58c0-15.95-12.93-28.88-28.88-28.88h-40.93v90.57 h11.4L674,461.91h17.73L723.04,494.73z M674.84,413.38h26.38c11.31,0,20.48,8.65,20.48,19.33s-9.17,19.33-20.48,19.33h-26.38 V413.38z"/>
    </g>
    <g>
      <path d="M325.65,596.73v-46.69h19.94c4.45,0,8.04,1.46,10.77,4.37c2.73,2.91,4.1,6.48,4.1,10.71c0,4.31-1.37,7.9-4.1,10.77 c-2.73,2.87-6.33,4.3-10.77,4.3l-14.07,0.07v16.48H325.65z M331.52,574.98l13.74-0.07c2.98,0,5.31-0.94,7-2.83 c1.69-1.89,2.53-4.26,2.53-7.1c0-2.8-0.83-5.1-2.5-6.9c-1.67-1.8-4.01-2.7-7.04-2.7h-13.74V574.98z"/>
      <path d="M402.56,596.73l19.14-46.69h6.07l19.21,46.69h-6.07l-4.54-11.01H413.1l-4.47,11.01H402.56z M434.44,580.58l-9.74-23.61 l-9.67,23.61H434.44z"/>
      <path d="M496.61,596.73v-46.69h19.94c4.4,0,7.98,1.43,10.74,4.3c2.76,2.87,4.13,6.35,4.13,10.44c0,3.47-1.02,6.46-3.07,8.97 c-2.05,2.51-4.65,4.12-7.81,4.83l11.41,18.14h-6.4l-11.07-17.54h-12.01v17.54H496.61z M515.89,574.05c2.84,0,5.2-0.87,7.07-2.6 c1.87-1.73,2.8-4,2.8-6.8c0-2.62-0.82-4.84-2.47-6.64s-3.89-2.7-6.74-2.7h-14.07v18.74H515.89z"/>
      <path d="M582.99,596.73v-46.69h5.87v46.69H582.99z"/>
      <path d="M645.63,552.83c3.42-2.27,7.63-3.4,12.61-3.4c6.27,0,11.76,1.78,16.48,5.34v6.2c-5.2-4.05-10.72-6.07-16.54-6.07 c-3.38,0-6.21,0.67-8.51,2c-2.29,1.33-3.43,3.23-3.43,5.67c0,0.89,0.23,1.7,0.7,2.44c0.47,0.73,1.02,1.33,1.67,1.8 c0.64,0.47,1.59,0.93,2.84,1.4c1.24,0.47,2.38,0.83,3.4,1.1c1.02,0.27,2.4,0.6,4.14,1c2.71,0.63,5.04,1.28,6.97,1.97 c1.94,0.69,3.72,1.57,5.37,2.63c1.65,1.07,2.88,2.37,3.7,3.9c0.82,1.53,1.24,3.32,1.24,5.37c0,4.18-1.7,7.4-5.1,9.67 c-3.4,2.27-7.57,3.4-12.51,3.4c-3.51,0-6.61-0.45-9.3-1.33c-2.69-0.89-5.55-2.2-8.57-3.94v-6.2c5.69,3.96,11.67,5.94,17.94,5.94 c3.42,0,6.24-0.66,8.44-1.97c2.2-1.31,3.3-3.15,3.3-5.5c0-2.13-0.93-3.83-2.8-5.07c-1.87-1.25-4.74-2.31-8.61-3.2 c-1.87-0.44-3.27-0.79-4.2-1.03c-0.93-0.24-2.18-0.61-3.74-1.1c-1.56-0.49-2.75-0.95-3.57-1.37c-0.82-0.42-1.77-0.99-2.84-1.7 c-1.07-0.71-1.86-1.44-2.37-2.2c-0.51-0.76-0.96-1.67-1.33-2.73c-0.38-1.07-0.57-2.25-0.57-3.54 C640.42,558.31,642.16,555.15,645.63,552.83z"/>
    </g>
  </g>
</svg>