<svg xmlns="http://www.w3.org/2000/svg" xml:space="preserve" style="enable-background:new 0 0 970 102.5" viewBox="0 0 970 102.5"><script/><script/><g fill="#fff"><path d="m44.65 51.301-30.9-45-.5-.8h-8.7v90.5h9.2v-73.3l25.3 36.8 5.6 8.2 5.6-8.2zM76.05 66.601l-15.3-22.3-5.7-8.2-21.8-31.8h-11.3l27.5 40 5.6 8.2 21 30.5 9 13h.3v-15.9zM76.05 21.801v33.1l9.3 13.2V5.501H76.05l-15.8 23 5.7 8.1zM180.45 4.301c-25.6 0-46.4 20.8-46.4 46.4s20.8 46.4 46.4 46.4 46.4-20.8 46.4-46.4c0-25.6-20.8-46.4-46.4-46.4zm0 82.6c-19.9 0-36.1-16.2-36.1-36.1 0-19.9 16.2-36.1 36.1-36.1s36.1 16.2 36.1 36.1c0 19.9-16.2 36.1-36.1 36.1zM434.95 4.301c-25.6 0-46.4 20.8-46.4 46.4s20.8 46.4 46.4 46.4c25.6 0 46.4-20.8 46.4-46.4 0-25.6-20.8-46.4-46.4-46.4zm0 82.6c-19.9 0-36.1-16.2-36.1-36.1 0-19.9 16.2-36.1 36.1-36.1 19.9 0 36.1 16.2 36.1 36.1s-16.2 36.1-36.1 36.1zM330.75 5.501l.2 64.7-54.4-64.7h-6.2v90.5h10.6v-65.7l55.4 65.7h5.8v-90.5zM562.25 58.501h26.4v21.4c-6 4.4-13.3 7-21.3 7-19.9 0-36.1-16.2-36.1-36.1 0-19.9 16.2-36.1 36.1-36.1 11.1 0 21.1 5 27.7 13l6.7-8c-8.5-9.4-20.8-15.3-34.4-15.3-25.6 0-46.4 20.8-46.4 46.4 0 25.6 20.8 46.4 46.4 46.4 12.9 0 24.6-5.3 33-13.8v-36.1h-38.1v11.2zM959.25 5.501l-35.3 45.9-35.3-45.9h-7.1v90.5h11.7l.2-64.8 29.2 37.8 1.3 1.6 1.2-1.6 29.2-37.8.2 64.8h11.8v-90.5zM764.95 96.001h-13.6l42.3-90.5h7.8l43.6 90.5h-14.1l-33.3-71.6zM709.15 96.001h14.1l-29.2-33.1c14-2 24.8-14 24.8-28.6 0-16-12.9-28.9-28.9-28.9h-40.9v90.6h11.4l-.3-32.8h17.7l31.3 32.8zm-48.2-81.3h26.4c11.3 0 20.5 8.6 20.5 19.3s-9.2 19.3-20.5 19.3h-26.4v-38.6z"/></g></svg>