<svg id="loveplanet" xmlns="http://www.w3.org/2000/svg" width="50.705" height="44.994" viewBox="0 0 50.705 44.994">
  <path id="Path_10475" data-name="Path 10475" d="M60.791,36.077c-2.652-1.042-5.778-.095-8.336,2.557a1.152,1.152,0,0,1-1.516,0A8.46,8.46,0,0,0,44.878,35.7h0a5.619,5.619,0,0,0-2.179.474,6.071,6.071,0,0,0-3.6,6.062c.095,5.21,6.82,11.177,12.6,14.777,5.683-3.5,12.314-9.283,12.6-14.493v-.284C64.391,39.3,63.064,37.024,60.791,36.077ZM46.583,39.2l-.095.568-.095-.189a1.011,1.011,0,0,1-1.042.284,1.612,1.612,0,0,0-1.326.189,2.23,2.23,0,0,0-.758,1.989,7.321,7.321,0,0,0,1.61,3.6.737.737,0,0,1,.189.758.959.959,0,0,1-.379.663,1.369,1.369,0,0,1-.663.189h-.189a.959.959,0,0,1-.663-.379,8.944,8.944,0,0,1-2.084-4.736,4.035,4.035,0,0,1,1.8-3.789,3.768,3.768,0,0,1,2.842-.474,1.1,1.1,0,0,1,.663.474A.966.966,0,0,1,46.583,39.2Z" transform="translate(-15.229 -13.722)" fill="none"/>
  <path id="Path_10476" data-name="Path 10476" d="M31.668,16.454c2.652-.568,3.694,0,4.641.852a3.2,3.2,0,0,0,1.8.853,3.99,3.99,0,0,1,2.463.947c.758.947.568,2.368.379,3.6a2.74,2.74,0,0,1-1.894,2.463c-.379.095-.853.189-1.231.284-2.084.474-4.736,1.042-5.21,3.221-.379,1.894-2.368,2.179-3.694,2.368-.947.095-1.231.189-1.326.284,0,.095.095.189.189.474v.095a9.448,9.448,0,0,0,1.137,1.8,2.054,2.054,0,0,0,.568.663c.095.095.568,0,1.231-.095a10.938,10.938,0,0,0,1.516-.189,19.711,19.711,0,0,1,5.683,1.705,7.486,7.486,0,0,1,3.41-2.747c.379-.095.663-.284,1.042-.379a14.308,14.308,0,0,1,.853-1.7c.284-.474.758-1.137.663-1.326-.379-.758.284-1.61.663-2.084a2.343,2.343,0,0,1,2.273-.947,12.812,12.812,0,0,0,4.641.284,1.356,1.356,0,0,0,.284-1.042c0-.095-.379-.189-.568-.189-.095,0-.663.095-.947.095-2.273.379-3.789.568-4.263-.568-.379-.853-.947-3.884.663-5.4a10.531,10.531,0,0,1,3.221-1.7,20.822,20.822,0,0,0-22.354-1.8h0C28.826,17.022,28.826,17.022,31.668,16.454Z" transform="translate(-14.617 -12.57)" fill="none"/>
  <path id="Path_10477" data-name="Path 10477" d="M23.952,33.44a6.354,6.354,0,0,1,2.463,2.273,5.5,5.5,0,0,1,.663,2.652c0,3.031.568,3.41,1.421,3.978,1.137.758,2.558,1.7,3.41,6.252.568,3.315,1.326,4.073,1.516,4.168a5.942,5.942,0,0,0,1.231-3.315A8.59,8.59,0,0,1,36.834,45a9.266,9.266,0,0,1-.853-3.884,10.727,10.727,0,0,1,.568-3.41,20.47,20.47,0,0,0-4.641-1.516c-.568,0-1.042.095-1.421.095a3.974,3.974,0,0,1-2.558-.189,7.152,7.152,0,0,1-1.894-2.273c-.568-.853-1.421-2.084-.853-3.315.474-1.042,1.8-1.231,2.936-1.421,1.042-.189,1.8-.284,1.894-.663.568-3.031,3.978-4.263,6.725-4.831h.095c.379-.095.853-.189,1.137-.284.095,0,.189-.189.379-.568a3.481,3.481,0,0,0,.095-2.179,2.522,2.522,0,0,0-1.137-.284,4.681,4.681,0,0,1-2.842-1.326c-.568-.474-.947-.758-2.936-.379-3.221.663-3.5.663-5.4,0A10.153,10.153,0,0,0,24.52,18a21.576,21.576,0,0,0-6.82,8.051A13.077,13.077,0,0,0,23.952,33.44Z" transform="translate(-14.1 -12.79)" fill="none"/>
  <path id="Path_10478" data-name="Path 10478" d="M37.76,47.776a4.76,4.76,0,0,0-1.137,2.652c-.474,3.126-1.7,5.115-3.315,5.115-1.7,0-2.936-1.989-3.6-5.968-.663-3.694-1.61-4.357-2.463-4.926-1.421-.947-2.273-1.8-2.368-5.683a3.664,3.664,0,0,0-2.084-3.221A14.963,14.963,0,0,1,16.542,29.4,20.715,20.715,0,0,0,15.5,35.746,20.94,20.94,0,0,0,36.434,56.68h.189a19.389,19.389,0,0,0,7.957-1.7A29.14,29.14,0,0,1,37.76,47.776Z" transform="translate(-13.984 -13.392)" fill="none"/>
  <path id="Path_10479" data-name="Path 10479" d="M48.647,24.457a8.6,8.6,0,0,0,2.179-.284c.474-.095.853-.095,1.326-.189A2.5,2.5,0,0,1,54.8,26.068,3.093,3.093,0,0,1,53.1,29.288,14.315,14.315,0,0,1,47.416,29a1.141,1.141,0,0,0-.474.474,4.012,4.012,0,0,1-.853,2.936c-.095.095-.095.189-.189.284a10.574,10.574,0,0,1,6.346,2.842A10.338,10.338,0,0,1,59.161,32.7a20.693,20.693,0,0,0-6.346-12.6c-.189.095-.474.189-.663.284h-.095A10.149,10.149,0,0,0,48.836,21.9C48.363,22.373,48.458,23.6,48.647,24.457Z" transform="translate(-15.589 -12.901)" fill="none"/>
  <path id="Path_10480" data-name="Path 10480" d="M60.03,33.434h0a2.118,2.118,0,0,0-.947-.284h-.189V32.96A22.576,22.576,0,0,0,36.444,12.5a15.347,15.347,0,0,0-2.084.095,22.5,22.5,0,1,0,4.168,44.8,23.886,23.886,0,0,0,7.957-2.273l.095-.095.095.095a34.034,34.034,0,0,0,3.41,2.273.6.6,0,0,0,.568,0c2.273-1.326,13.829-8.62,13.924-16.482A7.622,7.622,0,0,0,60.03,33.434ZM50.842,19.32l.095-.095.095.095a21.5,21.5,0,0,1,6.631,13.261l.095,1.042-.379-.758a9.684,9.684,0,0,0-6.82,2.842l-.189.189-.189-.189a10.086,10.086,0,0,0-6.631-2.842h-.379l.189-.379c.095-.189.284-.474.379-.663.568-.852,1.137-1.7.853-2.652v-.095l.095-.095a2.883,2.883,0,0,1,.758-.758l.095-.095h.095a13.847,13.847,0,0,0,5.589.284c.758-.189,1.421-1.61,1.326-2.652a1.911,1.911,0,0,0-2.084-1.7,4.8,4.8,0,0,0-1.231.189c-.758.095-1.61.189-2.368.284h-.189l-.189-.189c-.189-.663-.474-2.463.379-3.221A9.576,9.576,0,0,1,49.989,19.6h.095A6.526,6.526,0,0,0,50.842,19.32ZM26.024,16.289A21.383,21.383,0,0,1,49.8,18.183l.568.379H49.7a10.972,10.972,0,0,0-3.5,1.7c-1.326,1.231-.947,3.884-.474,4.831.284.663,1.326.568,3.694.284a6.263,6.263,0,0,1,1.042-.095c.568,0,.947.189,1.042.568a1.747,1.747,0,0,1-.474,1.516h-.189a14.406,14.406,0,0,1-4.926-.284,1.9,1.9,0,0,0-1.8.758c-.284.284-.853,1.042-.568,1.61.189.474-.189,1.042-.663,1.8a7.172,7.172,0,0,0-.853,1.7v.095h-.095a5.34,5.34,0,0,0-1.137.379,7.24,7.24,0,0,0-3.315,2.747l-.095.189-.189-.095a19.889,19.889,0,0,0-5.683-1.8c-.568.095-1.042.095-1.421.189-.853.095-1.231.189-1.516,0a2.611,2.611,0,0,1-.663-.853c-.379-.568-.758-1.137-1.137-1.8v-.095a1.167,1.167,0,0,1-.189-.947c.095-.189.474-.284,1.7-.474s2.936-.379,3.221-1.989c.474-2.558,3.315-3.126,5.589-3.6.474-.095.853-.189,1.231-.284a2.253,2.253,0,0,0,1.516-2.084c.189-1.137.379-2.463-.284-3.221a3.408,3.408,0,0,0-2.084-.853A3.523,3.523,0,0,1,35.4,17.52c-.947-.758-1.7-1.231-4.263-.758-2.842.568-2.936.663-4.452.095l-1.042-.379Zm-8.9,9.472a21.619,21.619,0,0,1,7.1-8.336l.284-.189v.189a10.153,10.153,0,0,1,1.61.568c1.8.663,1.989.663,5.115,0,2.084-.474,2.558-.095,3.315.474A4.489,4.489,0,0,0,37.107,19.6a3.083,3.083,0,0,1,1.326.379l.095.095c.379.474.189,1.894,0,2.652-.189.568-.379.853-.663.947-.379.095-.758.189-1.231.284h-.095c-2.557.568-5.778,1.8-6.346,4.547-.095.663-1.042.852-2.273,1.042-1.042.189-2.179.284-2.558,1.137-.474.947.284,2.084.758,2.842a5.476,5.476,0,0,0,1.7,2.179A3.41,3.41,0,0,0,30,35.9c.474-.095.947-.095,1.516-.189h0a19.4,19.4,0,0,1,5.02,1.61l.189.095V37.6a10.727,10.727,0,0,0-.568,3.41,8.623,8.623,0,0,0,.947,3.789l.095.189-.095.095a8.02,8.02,0,0,0-2.179,4.263c-.284,2.368-1.137,3.694-1.7,3.694-.474,0-1.326-.947-1.989-4.641-.758-4.357-2.084-5.21-3.126-5.967-.852-.568-1.61-1.042-1.61-4.357a5.526,5.526,0,0,0-.568-2.463,6.022,6.022,0,0,0-2.273-2.084,12.93,12.93,0,0,1-6.441-7.673l-.095-.095Zm28.038,28.8a21.216,21.216,0,0,1-8.714,1.894h-.189A21.406,21.406,0,0,1,15.037,35.044a20.028,20.028,0,0,1,1.231-7.1l.189-.568.284.568a14.825,14.825,0,0,0,6.252,6.725,4.221,4.221,0,0,1,2.368,3.6c0,3.6.853,4.452,2.084,5.3.947.663,1.989,1.326,2.652,5.21.663,3.6,1.7,5.494,3.031,5.494s2.463-1.894,2.842-4.736a5.993,5.993,0,0,1,1.516-3.221l.189-.189.189.284a28.855,28.855,0,0,0,7.388,7.767l.284.284Zm5.3,1.7-.095.095-.095-.095c-6.252-3.789-12.882-9.756-12.977-15.25A6.322,6.322,0,0,1,43.548,34a8.954,8.954,0,0,1,6.441,3.126.576.576,0,0,0,.758,0c2.652-2.747,6.062-3.789,8.809-2.652a6.462,6.462,0,0,1,3.884,6.252h0v.284C63.44,46.411,56.714,52.473,50.463,56.262Z" transform="translate(-13.9 -12.5)"/>
  <path id="Path_10481" data-name="Path 10481" d="M45.877,38.495a2.354,2.354,0,0,0-.758-.095,3.86,3.86,0,0,0-1.705.474,3.677,3.677,0,0,0-1.516,3.41,8.242,8.242,0,0,0,1.989,4.547.492.492,0,0,0,.379.189c.189,0,.284,0,.379-.095a.492.492,0,0,0,.189-.379c0-.189,0-.284-.095-.379a6.956,6.956,0,0,1-1.705-3.789,3.019,3.019,0,0,1,.947-2.463,2.631,2.631,0,0,1,1.7-.284c.284.095.568-.095.663-.474h0a.57.57,0,0,0-.095-.379C46.161,38.684,45.971,38.589,45.877,38.495Z" transform="translate(-15.376 -13.867)"/>
</svg>
