<?xml version="1.0" encoding="utf-8"?>
<!-- Generator: Adobe Illustrator 25.0.0, SVG Export Plug-In . SVG Version: 6.00 Build 0)  -->
<svg version="1.1" id="Layer_1" xmlns="http://www.w3.org/2000/svg" xmlns:xlink="http://www.w3.org/1999/xlink" x="0px" y="0px"
	 viewBox="0 0 970 102.5" style="enable-background:new 0 0 970 102.5;" xml:space="preserve">
<g transform="matrix(1, 0, 0, 1, -13.849316, -398.698639)">
	<g>
		<g>
			<polygon points="58.5,450 27.6,405 27.1,404.2 18.4,404.2 18.4,407.8 18.4,494.7 27.6,494.7 27.6,421.4 52.9,458.2 58.5,466.4 
				64.1,458.2 			"/>
			<polygon points="89.9,465.3 74.6,443 68.9,434.8 47.1,403 35.8,403 63.3,443 68.9,451.2 89.9,481.7 98.9,494.7 99.2,494.7 
				99.2,478.8 			"/>
			<polygon points="89.9,420.5 89.9,453.6 99.2,466.8 99.2,407 99.2,404.2 90.1,404.2 89.9,404.2 74.1,427.2 79.8,435.3 			"/>
		</g>
		<path d="M194.3,403c-25.6,0-46.4,20.8-46.4,46.4s20.8,46.4,46.4,46.4s46.4-20.8,46.4-46.4C240.7,423.8,219.9,403,194.3,403z
			 M194.3,485.6c-19.9,0-36.1-16.2-36.1-36.1c0-19.9,16.2-36.1,36.1-36.1s36.1,16.2,36.1,36.1C230.4,469.4,214.2,485.6,194.3,485.6z
			"/>
		<path d="M448.8,403c-25.6,0-46.4,20.8-46.4,46.4s20.8,46.4,46.4,46.4c25.6,0,46.4-20.8,46.4-46.4C495.2,423.8,474.4,403,448.8,403
			z M448.8,485.6c-19.9,0-36.1-16.2-36.1-36.1c0-19.9,16.2-36.1,36.1-36.1c19.9,0,36.1,16.2,36.1,36.1S468.7,485.6,448.8,485.6z"/>
		<polygon points="344.6,404.2 344.8,468.9 290.4,404.2 289.7,404.2 284.2,404.2 284.2,407.8 284.2,494.7 294.8,494.7 294.8,429 
			350.2,494.7 356,494.7 356,404.2 		"/>
		<path d="M576.1,457.2h26.4v21.4c-6,4.4-13.3,7-21.3,7c-19.9,0-36.1-16.2-36.1-36.1c0-19.9,16.2-36.1,36.1-36.1
			c11.1,0,21.1,5,27.7,13l6.7-8c-8.5-9.4-20.8-15.3-34.4-15.3c-25.6,0-46.4,20.8-46.4,46.4c0,25.6,20.8,46.4,46.4,46.4
			c12.9,0,24.6-5.3,33-13.8v-18v-18.1h-38.1L576.1,457.2L576.1,457.2z"/>
		<polygon points="973.1,404.2 937.8,450.1 902.5,404.2 895.4,404.2 895.4,494.7 907.1,494.7 907.3,429.9 936.5,467.7 936.5,467.7 
			937.8,469.3 939,467.7 939,467.7 968.2,429.9 968.4,494.7 980.2,494.7 980.2,404.2 		"/>
		<polygon points="778.8,494.7 765.2,494.7 807.5,404.2 815.3,404.2 858.9,494.7 844.8,494.7 811.5,423.1 		"/>
		<path d="M723,494.7h14.1l-29.2-33.1c14-2,24.8-14,24.8-28.6c0-16-12.9-28.9-28.9-28.9h-40.9v90.6h11.4l-0.3-32.8h17.7L723,494.7z
			 M674.8,413.4h26.4c11.3,0,20.5,8.6,20.5,19.3s-9.2,19.3-20.5,19.3h-26.4V413.4z"/>
	</g>
</g>
</svg>
