<svg id="Groupe_10024" data-name="Groupe 10024" xmlns="http://www.w3.org/2000/svg" width="38.336" height="29.456" viewBox="0 0 38.336 29.456">
  <path id="Tracé_10322" data-name="Tracé 10322" d="M69.819,156.969H88.563a.651.651,0,1,0,0-1.3H69.819a.651.651,0,1,0,0,1.3Z" transform="translate(-65.759 -149.401)"/>
  <path id="Tracé_10323" data-name="Tracé 10323" d="M66.336,83.028l-.407-.484a3.227,3.227,0,0,0-4.546-.386l-2.974,2.508-2.048,1.727h0v0l-.737.621V82.164a.652.652,0,0,0-.652-.651H29.41a.652.652,0,0,0-.651.651V110.2a.652.652,0,0,0,.651.652H54.969a.653.653,0,0,0,.652-.652V96.282l5.3-4.472h0l2.05-1.728,2.974-2.508A3.228,3.228,0,0,0,66.336,83.028ZM53.148,96.663l-5.03,4.242-2.887-3.424L56.7,87.81l2.887,3.424Zm-8.741,1.861,2.544,3.017-5.6,2.139Zm9.91,11.026H30.062V82.815H54.317v5.3L48.276,93.21H32.819a.651.651,0,0,0,0,1.3H46.731L43.894,96.9a1.748,1.748,0,0,1-.141.165l-1,1.688H32.819a.652.652,0,0,0,0,1.3H41.98L39.467,104.3H32.819a.652.652,0,0,0,0,1.3h7.019a.657.657,0,0,0,.232-.043l8.2-3.133a.637.637,0,0,0,.159-.1c.008-.006.021,0,.029-.011l5.857-4.939v12.168Zm6.267-19.155L57.7,86.97l1.054-.889,1.443,1.712L61.638,89.5Zm4.527-3.817-2.476,2.088L61.19,86.953l-1.443-1.712,2.476-2.088a1.926,1.926,0,0,1,2.71.231l.407.484A1.927,1.927,0,0,1,65.11,86.577Z" transform="translate(-28.759 -81.398)"/>
</svg>
