<svg id="noun_video_phone_1705701" data-name="noun_video phone_1705701" xmlns="http://www.w3.org/2000/svg" width="17.478" height="29.75" viewBox="0 0 17.478 29.75" fill="#000">
  <g id="Groupe_8596" data-name="Groupe 8596" transform="translate(0 0)">
    <path id="Tracé_9805" data-name="Tracé 9805" d="M29.289,11.616a1.673,1.673,0,0,0-1.673,1.673V37.461a1.673,1.673,0,0,0,1.673,1.673h11.9a1.673,1.673,0,0,0,1.673-1.673V13.289a1.673,1.673,0,0,0-1.673-1.673Zm0-1.116h11.9a2.789,2.789,0,0,1,2.789,2.789V37.461a2.789,2.789,0,0,1-2.789,2.789h-11.9A2.789,2.789,0,0,1,26.5,37.461V13.289A2.789,2.789,0,0,1,29.289,10.5Z" transform="translate(-26.5 -10.5)"/>
    <path id="Tracé_9806" data-name="Tracé 9806" d="M28.5,73.616V72.5H44.863v1.116Z" transform="translate(-27.756 -49.444)"/>
    <ellipse id="Ellipse_33" data-name="Ellipse 33" cx="1.116" cy="1.116" rx="1.116" ry="1.116" transform="translate(7.624 25.102)"/>
    <path id="Tracé_9807" data-name="Tracé 9807" d="M41.06,32.484a.558.558,0,0,1,.8-.5l6.768,3.267a.558.558,0,0,1,0,1L41.86,39.52a.558.558,0,0,1-.8-.5Zm1.116,5.646L47.1,35.751l-4.927-2.378Z" transform="translate(-35.645 -23.958)"/>
  </g>
</svg>
