<svg id="Iconos" xmlns="http://www.w3.org/2000/svg" width="19.779" height="19.463" viewBox="0 0 19.779 19.463" fill="#000">
  <path id="Tracé_9929" data-name="Tracé 9929" d="M36.905,35.344a1.118,1.118,0,0,0-.526-.378l-.147-.071c-.014,0-1.6-.783-1.9-.892a.788.788,0,0,0-1.032.269c-.155.238-.623.778-.84,1.023-.019.021-.033.031-.033.033a.39.39,0,0,1-.138-.05c-.048-.024-.117-.052-.2-.088A6.756,6.756,0,0,1,30.159,34a7.743,7.743,0,0,1-1.453-1.784l-.033-.038a.892.892,0,0,1,.078-.083c.1-.093.2-.216.295-.333l.138-.162a1.967,1.967,0,0,0,.285-.45l.036-.074a.835.835,0,0,0-.021-.794c-.043-.083-.326-.761-.533-1.256l-.3-.726c-.255-.6-.583-.678-.887-.68h-.585a1.363,1.363,0,0,0-.992.452l-.05.052a3.33,3.33,0,0,0-1,2.441,5.489,5.489,0,0,0,1.189,3.007l.04.059a12.184,12.184,0,0,0,4.788,4.127,16.008,16.008,0,0,0,1.6.58,3.9,3.9,0,0,0,1.168.176,4.568,4.568,0,0,0,.714-.057,3.167,3.167,0,0,0,2.141-1.513,2.408,2.408,0,0,0,.128-1.591Zm-.8,1.346a2.552,2.552,0,0,1-1.568,1.054,3.516,3.516,0,0,1-1.57-.1,15.851,15.851,0,0,1-1.53-.557,11.435,11.435,0,0,1-4.484-3.884c-.026-.038-.045-.064-.059-.081a4.905,4.905,0,0,1-1.044-2.571,2.631,2.631,0,0,1,.809-1.948l.057-.059a.659.659,0,0,1,.476-.224h.59c.076,0,.121,0,.224.238.076.178.188.442.3.714.312.747.5,1.208.552,1.3s.038.121.024.15l-.04.076a1.139,1.139,0,0,1-.186.3l-.145.174a3.568,3.568,0,0,1-.238.278.745.745,0,0,0-.176.987A8.418,8.418,0,0,0,29.7,34.5a7.49,7.49,0,0,0,2.119,1.32l.164.071A.783.783,0,0,0,33,35.741c.138-.155.695-.8.9-1.094.019-.029.033-.043.036-.048a.83.83,0,0,1,.167.048c.214.076,1.48.687,1.836.861l.155.076c.074.033.159.076.209.1A2.6,2.6,0,0,1,36.106,36.69Z" transform="translate(-21.099 -23.397)"/>
  <path id="Tracé_9930" data-name="Tracé 9930" d="M11.069,12.719a9.56,9.56,0,0,0-1.5,11.865l-1.3,4.194a.359.359,0,0,0,.09.357.352.352,0,0,0,.354.09L13,27.942a9.945,9.945,0,0,0,12.048-1.47,9.615,9.615,0,0,0,0-13.754A9.991,9.991,0,0,0,11.069,12.719ZM24.535,25.963a9.237,9.237,0,0,1-11.323,1.285.347.347,0,0,0-.186-.052.373.373,0,0,0-.167.04L9.149,28.349l1.128-3.637a.359.359,0,0,0,0-.362,8.854,8.854,0,0,1,1.292-11.12,9.277,9.277,0,0,1,12.966,0,8.9,8.9,0,0,1,0,12.736Z" transform="translate(-8.16 -9.868)"/>
</svg>
