<svg xmlns="http://www.w3.org/2000/svg" width="31.953" height="30.373" viewBox="0 0 31.953 30.373">
  <path id="Tracé_9765" data-name="Tracé 9765" d="M20.606,28.37l1.2.766-.621.58a1.245,1.245,0,0,1-.849.335h-.856a1.245,1.245,0,0,1-.849-.335l-.621-.58,1.2-.766a.575.575,0,0,1,.567-.03l.13.065.13-.065A.574.574,0,0,1,20.606,28.37Zm14.971-2.578H28.969V36.11l-.2.046A5.037,5.037,0,0,1,22.6,31.307l-.008-.108.072-.081A18.055,18.055,0,0,0,25.405,26.8a9.272,9.272,0,0,0,.341-1.01h-11.6a7.564,7.564,0,0,0,.341,1.008,22.909,22.909,0,0,0,2.744,4.328l.064.078-.007.1a5.043,5.043,0,0,1-6.241,4.833l-.2-.048v-10.3H4.279l-.024-.23c-.016-.15-.29-3.522,5.566-8.1a1.35,1.35,0,0,1-.241-.064L7.17,19a1.68,1.68,0,0,1-.937.287,1.715,1.715,0,0,1-.576-.1,1.7,1.7,0,0,1,.574-3.3h.329a1.424,1.424,0,0,1-.6-1.931,1.422,1.422,0,0,1,2.261-.331l1.307,1.31a1.305,1.305,0,0,1,1.337.195l.02-.4a9.065,9.065,0,0,1,18.051,0l.02.28v1.649c6.412,4.507,6.61,8.692,6.615,8.869ZM11.426,14.5H28.393a8.552,8.552,0,0,0-16.967,0Zm-.049.513v1.561l17.064-.005V15.01H11.377Zm-1.34.336a.813.813,0,1,0,.813.813A.814.814,0,0,0,10.037,15.346Zm-3,.17,1.715.343a1.326,1.326,0,0,1,.346-.63L7.856,13.988a.908.908,0,0,0-1.444.211.909.909,0,0,0,.622,1.317ZM9.1,17.1a1.325,1.325,0,0,1-.367-.695l-2.506,0a1.186,1.186,0,1,0,.655,2.173ZM14.014,27a8.534,8.534,0,0,1-.4-1.211H11.364v9.893a4.527,4.527,0,0,0,5.4-4.313A22.607,22.607,0,0,1,14.014,27ZM28.455,35.7v-9.9H26.277a10.029,10.029,0,0,1-.4,1.2,18.076,18.076,0,0,1-2.759,4.377A4.517,4.517,0,0,0,28.455,35.7Zm6.57-10.418c-.159-.973-1.086-4.49-6.364-8.2l-17.479.006c-5.745,4.112-6.359,7.33-6.415,8.194Z" transform="translate(-3.933 -6.212)" stroke="#000" stroke-width="0.6"/>
</svg>
