<svg xmlns="http://www.w3.org/2000/svg" width="38.74" height="39.509" viewBox="0 0 38.74 39.509">
  <path id="Path_10536" data-name="Path 10536" d="M116.518,5.735h-8.474V4a.807.807,0,0,0-1.615,0V5.735H98.763V4a.807.807,0,1,0-1.615,0V5.735H89.482V4a.807.807,0,1,0-1.615,0V5.735H79.393a.807.807,0,0,0-.807.807V41.894a.807.807,0,0,0,.807.807h37.125a.807.807,0,0,0,.807-.807V6.542a.808.808,0,0,0-.808-.807ZM87.867,7.35V9.086a.807.807,0,0,0,1.615,0V7.35h7.667V9.086a.807.807,0,0,0,1.615,0V7.35h7.667V9.086a.807.807,0,0,0,1.615,0V7.35h7.667v6.329H80.2V7.35ZM80.2,41.086V15.293h35.51V41.086Zm22.942-16.68a.807.807,0,0,1,0,1.142l-6.426,6.426a.807.807,0,0,1-1.142,0l-2.807-2.807a.807.807,0,1,1,1.142-1.142l2.236,2.235L102,24.406a.808.808,0,0,1,1.142,0Zm-5.187-6.428a10.211,10.211,0,1,0,10.211,10.211A10.223,10.223,0,0,0,97.955,17.978Zm0,18.808a8.6,8.6,0,1,1,8.6-8.6A8.606,8.606,0,0,1,97.955,36.787Z" transform="translate(-78.586 -3.192)"/>
</svg>
