<svg xmlns="http://www.w3.org/2000/svg" width="107.287" height="106.733" viewBox="0 0 107.287 106.733">
  <g id="Groupe_8664" data-name="Groupe 8664" transform="translate(-41.414 -3158.164)">
    <g id="Groupe_8658" data-name="Groupe 8658" transform="translate(86.393 3200.564)">
      <path id="Tracé_9542" data-name="Tracé 9542" d="M653.2,314.166l-7.032-10.271-.125-.182H644.05v20.645h2.113V307.635l5.753,8.4,1.279,1.869,1.281-1.869Z" transform="translate(-644.05 -303.452)" fill="#fff"/>
      <path id="Tracé_9543" data-name="Tracé 9543" d="M658.3,317.787l-3.5-5.1-1.283-1.867-4.974-7.237H645.98l6.259,9.106,1.281,1.867,4.782,6.957,2.045,2.975h.068V320.86Z" transform="translate(-641.991 -303.586)" fill="#fff"/>
      <path id="Tracé_9544" data-name="Tracé 9544" d="M653.8,307.439v7.538L655.913,318V303.712H653.8l-3.6,5.252,1.295,1.846Z" transform="translate(-637.488 -303.452)" fill="#fff"/>
    </g>
    <g id="Groupe_8654" data-name="Groupe 8654" transform="translate(41.413 3158.164)">
      <g id="Groupe_8653" data-name="Groupe 8653">
        <path id="Tracé_9878" data-name="Tracé 9878" d="M705.568,495.616l-2.529,6.393-2.258-.893,5.568-14.08,3,1.187a2.187,2.187,0,0,1,1.446,3.142l-.961,2.432c-.47,1.189-.767,1.689-2.071,1.81,1.125,1.083.674,1.723.183,2.963l-1.439,3.637a2.391,2.391,0,0,0-.162,1.113l-2.222-.88a1.587,1.587,0,0,1,.1-1.157l1.507-3.809.407-1.034C706.349,495.907,705.878,495.739,705.568,495.616Zm.606-1.634.345.136a.417.417,0,0,0,.617-.254l1.412-3.565a.417.417,0,0,0-.278-.608l-.345-.137Z" transform="translate(-635.799 -485.044)" fill="#fff"/>
        <path id="Tracé_9879" data-name="Tracé 9879" d="M717.2,494.351l-2.594,3.768,1.741,1.2-.294.427-.745,1.083-1.741-1.2-2.843,4.138,1.74,1.2-1.05,1.526-3.71-2.55,8.575-12.471,3.71,2.55-1.05,1.526Z" transform="translate(-634.172 -484.002)" fill="#fff"/>
        <path id="Tracé_9880" data-name="Tracé 9880" d="M717.526,507.3l9.056-7.262,1.429,1.556-11.9,9.423-.1-.11-2.481-2.7L723.9,497.12l1.578,1.719Z" transform="translate(-632.804 -482.674)" fill="#fff"/>
        <path id="Tracé_9881" data-name="Tracé 9881" d="M730.537,508.229l-3.977,2.264,1.045,1.835-.451.257-1.144.65-1.044-1.835-4.362,2.482,1.044,1.836-1.609.915-2.227-3.911,13.151-7.485,2.227,3.912-1.609.915Z" transform="translate(-631.797 -480.767)" fill="#fff"/>
        <path id="Tracé_9882" data-name="Tracé 9882" d="M729.063,517.411l-7.709,2.28-.557-1.882,14.51-4.29.747,2.522-7,3.749,7.459-2.2.568,1.918-14.51,4.292-.758-2.559Z" transform="translate(-631.096 -478.821)" fill="#fff"/>
        <path id="Tracé_9883" data-name="Tracé 9883" d="M722.676,524.687l15.112-.694.148,3.22a2.185,2.185,0,0,1-2.271,2.606l-10.339.475a2.187,2.187,0,0,1-2.5-2.387ZM724.452,527a2.5,2.5,0,0,0,.016.388.412.412,0,0,0,.485.441l10.765-.5a.41.41,0,0,0,.441-.483s-.011-.241-.019-.389Z" transform="translate(-630.654 -476.36)" fill="#fff"/>
        <path id="Tracé_9884" data-name="Tracé 9884" d="M735.469,536.721l-4.5-.808-.373,2.076-.51-.091-1.3-.232.374-2.078-4.941-.888-.373,2.078-1.822-.327.794-4.43,14.894,2.676-.8,4.429L735.1,538.8Z" transform="translate(-630.807 -474.474)" fill="#fff"/>
        <path id="Tracé_9885" data-name="Tracé 9885" d="M735.618,544.115l-1.9,4.588-.564-.232-1.182-.49-9.577-6.613-.929,2.243-1.729-.716,1.878-4.537,1.73.716,9.583,6.6s.086-.2.128-.309l.815-1.967,1.609.666Z" transform="translate(-631.345 -472.985)" fill="#fff"/>
        <path id="Tracé_9886" data-name="Tracé 9886" d="M710.99,553.188l8.453,12.546-3.731,2.514-1.035-1.535,1.751-1.178-2.555-3.795-1.752,1.179-.289-.43L711.1,561.4l1.75-1.181-3.838-5.7Z" transform="translate(-633.866 -469.5)" fill="#fff"/>
        <path id="Tracé_9887" data-name="Tracé 9887" d="M703.222,557.524l2.193-.951,6.016,13.89-2.193.951Z" transform="translate(-635.225 -468.704)" fill="#fff"/>
        <path id="Tracé_9888" data-name="Tracé 9888" d="M701.476,566.627l-1.645-7.867,1.922-.4,3.095,14.808-2.574.537-3.168-7.283,1.591,7.612-1.957.409-3.095-14.807,2.611-.546Z" transform="translate(-637.006 -468.285)" fill="#fff"/>
        <path id="Tracé_9889" data-name="Tracé 9889" d="M690.235,563.254l1.685.068.5-3.706,2,.083-2.043,15.069-3.593-.148-.221-.009-.864-15.188,2.333.095Zm.509,8.886.932-6.936-1.315-.052Z" transform="translate(-638.872 -468.035)" fill="#fff"/>
        <path id="Tracé_9890" data-name="Tracé 9890" d="M682.8,566.436l2.342-7.691,1.878.573-4.409,14.478-2.517-.766.725-7.912-2.266,7.442-1.914-.58,4.409-14.481,2.551.778Z" transform="translate(-641.471 -468.487)" fill="#fff"/>
        <path id="Tracé_9891" data-name="Tracé 9891" d="M671.921,559.005l1.876-3.129a2.2,2.2,0,0,1,3.388-.757l.7.421a2.186,2.186,0,0,1,.916,3.333l-5.319,8.878a2.188,2.188,0,0,1-3.374.764l-.7-.419a2.2,2.2,0,0,1-.932-3.343l1.466-2.446,2.144,1.286-1.571,2.621a.427.427,0,1,0,.731.437l5.53-9.226a.428.428,0,1,0-.731-.44l-1.98,3.3Z" transform="translate(-643.49 -469.16)" fill="#fff"/>
        <path id="Tracé_9892" data-name="Tracé 9892" d="M663.147,560.743l3.161-3.3-1.525-1.461.359-.374.909-.948,1.525,1.46,3.47-3.626-1.525-1.458,1.281-1.338,3.249,3.112L663.59,563.733l-3.249-3.111,1.281-1.338Z" transform="translate(-645.301 -470.321)" fill="#fff"/>
        <path id="Tracé_9893" data-name="Tracé 9893" d="M657.347,556.834l-2.784-4.11.506-.342,1.058-.715,10.787-4.355-1.361-2.008,1.55-1.047,2.752,4.063-1.549,1.049-10.778,4.368.188.275,1.194,1.764-1.442.977Z" transform="translate(-646.659 -471.598)" fill="#fff"/>
        <path id="Tracé_9894" data-name="Tracé 9894" d="M659.62,527.769l-.031,1.688,3.716.42-.037,2-15.1-1.7.067-3.591.005-.222,15.157-1.2-.043,2.333Zm-8.868.709,6.952.778.025-1.316Z" transform="translate(-648.163 -476.087)" fill="#fff"/>
        <path id="Tracé_9895" data-name="Tracé 9895" d="M659.1,517.53l3.536.911a2.2,2.2,0,0,1,1.686,3.037l-.2.789a2.187,2.187,0,0,1-2.938,1.825l-10.03-2.583a2.188,2.188,0,0,1-1.691-3.018l.2-.789a2.2,2.2,0,0,1,2.943-1.844l2.763.711-.622,2.422-2.961-.762a.428.428,0,1,0-.212.826L662,521.741a.428.428,0,1,0,.212-.826l-3.732-.962Z" transform="translate(-647.888 -478.297)" fill="#fff"/>
        <path id="Tracé_9896" data-name="Tracé 9896" d="M660.621,512.741l6.035,3.242-1.13,2.106L652.2,510.927l1.131-2.1,5.661,3.04.447-.832-5.662-3.041,1.131-2.1,13.329,7.16-1.131,2.1-6.035-3.242Z" transform="translate(-647.215 -480.614)" fill="#fff"/>
        <path id="Tracé_9897" data-name="Tracé 9897" d="M660.594,501.317l3.449,3.007,1.388-1.593.39.341.992.865-1.387,1.592,3.784,3.3,1.387-1.593,1.4,1.218-2.958,3.394L657.629,501.9l2.956-3.394,1.4,1.216Z" transform="translate(-645.939 -482.348)" fill="#fff"/>
        <path id="Tracé_9898" data-name="Tracé 9898" d="M668.255,494.5l7.905,10.72-1.939,1.429-7.9-10.718-1.252.922-1.077-1.46,4.442-3.278,1.078,1.462Z" transform="translate(-644.444 -483.851)" fill="#fff"/>
        <path id="Tracé_9899" data-name="Tracé 9899" d="M675.269,490.461l1.845,4.188,1.933-.852.21.473.53,1.2-1.933.853,2.027,4.593,1.931-.851.748,1.694-4.12,1.818-6.106-13.853,4.12-1.815.747,1.7Z" transform="translate(-642.483 -484.838)" fill="#fff"/>
        <path id="Tracé_9900" data-name="Tracé 9900" d="M680.823,486.418l4.863-1,.123.6.256,1.251-.115,11.635,2.376-.488.375,1.835-4.809.983-.375-1.832.1-11.632-.327.067-2.087.429-.349-1.707Z" transform="translate(-640.489 -485.423)" fill="#fff"/>
      </g>
      <circle id="Ellipse_31" data-name="Ellipse 31" cx="1.034" cy="1.034" r="1.034" transform="translate(52.853 12.151)" fill="#fff"/>
      <circle id="Ellipse_32" data-name="Ellipse 32" cx="1.034" cy="1.034" r="1.034" transform="translate(86.024 73.386)" fill="#fff"/>
      <circle id="Ellipse_33" data-name="Ellipse 33" cx="1.034" cy="1.034" r="1.034" transform="translate(15.973 67.669)" fill="#fff"/>
    </g>
  </g>
</svg>
