<svg xmlns="http://www.w3.org/2000/svg" width="38.043" height="25.051"><g data-name="Groupe 8379"><g fill="none" stroke="#fff" stroke-linecap="round" stroke-linejoin="round" stroke-miterlimit="10" stroke-width="2" data-name="icn/burger-menu"><path d="M1 6.99h9.37"/><path d="M1 12.522h9.37" data-name="Line Copy"/><path d="M1 18.053h11.163" data-name="Line Copy 2"/></g><path fill="#fff" stroke="#fff" stroke-miterlimit="10" stroke-width=".8" d="M32.99 24.453a.62.62 0 0 1-.39-.261l-3.954-5.863a8.783 8.783 0 1 1 1.015-.685l3.955 5.862a.615.615 0 0 1-.166.85.6.6 0 0 1-.46.097ZM25.701 3.349a7.537 7.537 0 1 0 5.962 8.834 7.544 7.544 0 0 0-5.962-8.834Z" data-name="icn/search-white"/></g></svg>