<svg xmlns="http://www.w3.org/2000/svg" width="21.878" height="14.423" viewBox="0 0 21.878 14.423">
  <g id="Groupe_9973" data-name="Groupe 9973" transform="translate(0)">
    <path id="Tracé_9974" data-name="Tracé 9974" d="M19.492,973.361a.5.5,0,0,1,.241.1l7.956,6.216a.5.5,0,0,1,0,.785l-7.956,6.216a.5.5,0,0,1-.8-.388V983.8a18.994,18.994,0,0,0-4.118.3,16.322,16.322,0,0,0-7.987,3.566.5.5,0,0,1-.8-.528c2.076-6.4,8.4-9.446,12.905-10.66v-2.611a.5.5,0,0,1,.559-.5Zm.435,1.507v1.974a.5.5,0,0,1-.373.482c-3.927.994-9.408,3.521-11.88,8.492a18.246,18.246,0,0,1,6.969-2.7,22.115,22.115,0,0,1,4.809-.3.5.5,0,0,1,.474.5v1.966l6.651-5.2Z" transform="translate(-6.003 -973.357)"/>
  </g>
</svg>
