<svg xmlns="http://www.w3.org/2000/svg" width="25.976" height="25.976" viewBox="0 0 25.976 25.976">
  <g id="Groupe_8579" data-name="Groupe 8579" transform="translate(-6.832 -8.747)">
    <path id="Tracé_9616" data-name="Tracé 9616" d="M30.77,10.784H28.733V9.511a.764.764,0,1,0-1.528,0v1.273H12.435V9.511a.764.764,0,1,0-1.528,0v1.273H8.869a2.04,2.04,0,0,0-2.037,2.037V32.685a2.039,2.039,0,0,0,2.037,2.037h21.9a2.039,2.039,0,0,0,2.037-2.037V12.822A2.04,2.04,0,0,0,30.77,10.784Zm.509,21.9a.51.51,0,0,1-.509.509H8.869a.51.51,0,0,1-.509-.509V17.406H31.28Zm0-16.808H8.36V12.822a.51.51,0,0,1,.509-.509h2.037v1.273a.764.764,0,0,0,1.528,0V12.312h14.77v1.273a.764.764,0,1,0,1.528,0V12.312H30.77a.51.51,0,0,1,.509.509Z" transform="translate(0)"/>
    <circle id="Ellipse_15" data-name="Ellipse 15" cx="0.773" cy="0.773" r="0.773" transform="translate(15.023 20.031)"/>
    <circle id="Ellipse_16" data-name="Ellipse 16" cx="0.773" cy="0.773" r="0.773" transform="translate(18.889 20.031)"/>
    <circle id="Ellipse_17" data-name="Ellipse 17" cx="0.773" cy="0.773" r="0.773" transform="translate(22.756 20.031)"/>
    <circle id="Ellipse_18" data-name="Ellipse 18" cx="0.773" cy="0.773" r="0.773" transform="translate(27.395 20.031)"/>
    <circle id="Ellipse_19" data-name="Ellipse 19" cx="0.773" cy="0.773" r="0.773" transform="translate(11.157 23.897)"/>
    <circle id="Ellipse_20" data-name="Ellipse 20" cx="0.773" cy="0.773" r="0.773" transform="translate(15.023 23.897)"/>
    <circle id="Ellipse_21" data-name="Ellipse 21" cx="0.773" cy="0.773" r="0.773" transform="translate(18.889 23.897)"/>
    <circle id="Ellipse_22" data-name="Ellipse 22" cx="0.773" cy="0.773" r="0.773" transform="translate(22.756 23.897)"/>
    <circle id="Ellipse_23" data-name="Ellipse 23" cx="0.773" cy="0.773" r="0.773" transform="translate(27.395 23.897)"/>
    <circle id="Ellipse_24" data-name="Ellipse 24" cx="0.773" cy="0.773" r="0.773" transform="translate(11.157 27.764)"/>
    <circle id="Ellipse_25" data-name="Ellipse 25" cx="0.773" cy="0.773" r="0.773" transform="translate(15.023 27.764)"/>
    <circle id="Ellipse_26" data-name="Ellipse 26" cx="0.773" cy="0.773" r="0.773" transform="translate(18.889 27.764)"/>
  </g>
</svg>
