<svg xmlns="http://www.w3.org/2000/svg" width="36.388" height="29.456" viewBox="0 0 36.388 29.456">
  <g id="noun_Track_order_3849738" data-name="noun_Track order_3849738" transform="translate(-0.209)">
    <g id="Order_Tracking" data-name="Order Tracking" transform="translate(0.209 0)">
      <path id="Tracé_10328" data-name="Tracé 10328" d="M25.114,29.471l-5.787,1.923V15.886L26.466,13.5a.251.251,0,0,0,.121-.035l6.6-2.2V19.3a.866.866,0,0,0,1.733,0V10.064a.866.866,0,0,0-.035-.208.1.1,0,0,0-.017-.069V9.77a1.153,1.153,0,0,0-.1-.208.017.017,0,0,0-.017-.017.346.346,0,0,0-.156-.156c0-.017,0-.017-.017-.017a.461.461,0,0,0-.173-.1l-.156-.052h-.017L18.842,4.087l-.1-.035A.693.693,0,0,0,18.478,4h-.035a.693.693,0,0,0-.26.052l-.1.035L10.456,6.634l-.121.035L2.693,9.215l-.1.035a1.058,1.058,0,0,0-.243.121.406.406,0,0,0-.121.121c-.017,0-.035.017-.035.052a.31.31,0,0,0-.087.121.806.806,0,0,0-.1.4V27.391a.866.866,0,0,0,.589.814l15.542,5.181a.064.064,0,0,0,.052.017.766.766,0,0,0,.554,0l.052-.017L25.669,31.1a.866.866,0,1,0-.554-1.629Zm-6.654-23.7,12.874,4.3-5.077,1.7-12.874-4.3Zm-.866,25.627L3.733,26.768V11.26l13.862,4.626Zm.866-17.032-12.874-4.3,5.077-1.7,12.874,4.3ZM38.054,30.172l-3.025-2.36a4.5,4.5,0,0,0,.508-2.048,4.626,4.626,0,1,0-1.568,3.419l3.018,2.367a.868.868,0,0,0,1.067-1.369ZM30.962,28.6a2.842,2.842,0,1,1,2.842-2.84A2.842,2.842,0,0,1,30.962,28.6Z" transform="translate(-2 -4)"/>
    </g>
  </g>
</svg>
