<svg width="23" height="25" viewBox="0 0 23 25" fill="none" xmlns="http://www.w3.org/2000/svg">
<path d="M11.3698 1.5C10.3216 1.5 9.29688 1.81084 8.4253 2.39321C7.55372 2.97558 6.87441 3.80333 6.47326 4.77178C6.07212 5.74023 5.96716 6.80588 6.17166 7.83398C6.37616 8.86208 6.88094 9.80645 7.62216 10.5477C8.36338 11.2889 9.30775 11.7937 10.3358 11.9982C11.3639 12.2027 12.4296 12.0977 13.398 11.6966C14.3665 11.2954 15.1942 10.6161 15.7766 9.74452C16.359 8.87294 16.6698 7.84824 16.6698 6.8C16.6677 5.395 16.1086 4.04816 15.1152 3.05467C14.1217 2.06119 12.7748 1.50212 11.3698 1.5ZM11.3698 0C12.7147 0 14.0294 0.398813 15.1477 1.14601C16.266 1.8932 17.1375 2.95521 17.6522 4.19775C18.1669 5.44029 18.3015 6.80754 18.0392 8.12661C17.7768 9.44569 17.1291 10.6573 16.1782 11.6083C15.2272 12.5593 14.0155 13.207 12.6964 13.4693C11.3774 13.7317 10.0101 13.5971 8.76758 13.0824C7.52504 12.5677 6.46302 11.6961 5.71583 10.5779C4.96864 9.45962 4.56982 8.14491 4.56982 6.8C4.56982 4.99653 5.28625 3.26692 6.5615 1.99167C7.83675 0.716427 9.56635 0 11.3698 0Z" fill="white"/>
<path d="M11.373 13.7731C6.4 13.7731 2.268 17.8061 1.6 23.0291H21.151C20.479 17.8061 16.35 13.7731 11.373 13.7731ZM11.373 12.2731C17.654 12.2731 22.746 17.7601 22.746 24.5291H0C0 17.7601 5.092 12.2731 11.373 12.2731Z" fill="white"/>
</svg>
