<svg width="30" height="30" viewBox="0 0 30 30" fill="none" xmlns="http://www.w3.org/2000/svg">
<path d="M24.1541 29.5261C23.9598 29.4867 23.7889 29.3726 23.6779 29.2084L18.8626 22.0695C16.4606 23.4579 13.6132 23.8596 10.9208 23.1897C8.22842 22.5198 5.90125 20.8308 4.42984 18.4786C2.95842 16.1265 2.45772 13.2949 3.03325 10.5808C3.60879 7.86661 5.21561 5.48194 7.51503 3.92938C9.81445 2.37682 12.6268 1.77764 15.3594 2.25816C18.092 2.73868 20.5312 4.26134 22.1631 6.50521C23.7949 8.74907 24.4918 11.5388 24.1069 14.2865C23.722 17.0342 22.2853 19.5251 20.0997 21.2342L24.916 28.3733C25.0262 28.5377 25.0668 28.7389 25.029 28.9332C24.9913 29.1274 24.8782 29.2988 24.7145 29.4099C24.6336 29.4657 24.5423 29.5048 24.446 29.5247C24.3498 29.5447 24.2505 29.5452 24.1541 29.5261ZM15.27 3.80334C13.4864 3.45625 11.6399 3.64591 9.96417 4.34832C8.28839 5.05074 6.85858 6.23436 5.85557 7.74947C4.85255 9.26459 4.32141 11.0431 4.32931 12.8601C4.33722 14.6772 4.88381 16.451 5.89997 17.9574C6.91612 19.4637 8.35618 20.6348 10.038 21.3226C11.7198 22.0104 13.5678 22.184 15.3483 21.8214C17.1288 21.4588 18.7618 20.5763 20.0407 19.2856C21.3195 17.9948 22.1869 16.3538 22.533 14.57C22.9947 12.1794 22.4894 9.70332 21.1277 7.68488C19.7661 5.66644 17.6595 4.27052 15.27 3.80334Z" fill="white" stroke="white" stroke-width="0.5" stroke-miterlimit="10"/>
</svg>
