<svg width="22" height="25" viewBox="0 0 22 25" fill="none" xmlns="http://www.w3.org/2000/svg">
<path d="M18.239 24.2479H3.67304C2.7814 24.2868 1.9106 23.9712 1.25088 23.3701C0.59115 22.7691 0.196107 21.9313 0.152039 21.0399V21.0099C0.153041 20.9999 0.153041 20.9899 0.152039 20.9799L2.91704 5.44092C2.92766 5.2773 2.99992 5.12379 3.11924 5.01134C3.23856 4.89888 3.39608 4.83584 3.56004 4.83492H6.32304C6.33622 3.59238 6.83135 2.4035 7.70404 1.51892C8.12063 1.09215 8.61721 0.751615 9.16542 0.516773C9.71364 0.281932 10.3027 0.157379 10.8991 0.150229C11.4954 0.143078 12.0874 0.253471 12.641 0.475101C13.1947 0.696731 13.6993 1.02526 14.126 1.44192L14.204 1.51892C15.0777 2.40322 15.5742 3.59195 15.589 4.83492H18.352C18.5154 4.83791 18.6717 4.90164 18.7906 5.01369C18.9095 5.12573 18.9824 5.27805 18.995 5.44092L21.755 20.9799C21.7575 20.9995 21.7575 21.0193 21.755 21.0389C21.711 21.9295 21.3166 22.7666 20.658 23.3677C19.9994 23.9688 19.1299 24.2852 18.239 24.2479ZM4.14904 6.16692L1.45104 21.0669C1.51183 21.6021 1.77682 22.0932 2.19076 22.4379C2.60471 22.7825 3.13568 22.9541 3.67304 22.9169H18.239C18.777 22.9549 19.3089 22.7837 19.7236 22.439C20.1384 22.0943 20.404 21.6028 20.465 21.0669L17.757 6.16692M7.61204 6.16692L10.956 1.47492C10.5208 1.47485 10.09 1.56158 9.68873 1.73002C9.28745 1.89847 8.92379 2.14525 8.61904 2.45592C7.99137 3.08865 7.63299 3.93979 7.61904 4.83092H14.295C14.2803 3.93996 13.922 3.08912 13.295 2.45592C12.9895 2.146 12.6253 1.9 12.2238 1.73226C11.8222 1.56452 11.3912 1.4784 10.956 1.47892L7.61204 6.16692Z" fill="white"/>
<path d="M4.14904 6.16692L1.45104 21.0669C1.51183 21.6021 1.77682 22.0932 2.19076 22.4379C2.60471 22.7825 3.13568 22.9541 3.67304 22.9169H18.239C18.777 22.9549 19.3089 22.7837 19.7236 22.439C20.1384 22.0943 20.404 21.6028 20.465 21.0669L17.757 6.16692M18.239 24.2479H3.67304C2.7814 24.2868 1.9106 23.9712 1.25088 23.3701C0.59115 22.7691 0.196107 21.9313 0.152039 21.0399V21.0099C0.153041 20.9999 0.153041 20.9899 0.152039 20.9799L2.91704 5.44092C2.92766 5.2773 2.99992 5.12379 3.11924 5.01134C3.23856 4.89888 3.39608 4.83584 3.56004 4.83492H6.32304C6.33622 3.59238 6.83135 2.4035 7.70404 1.51892C8.12063 1.09215 8.61721 0.751615 9.16542 0.516773C9.71364 0.281932 10.3027 0.157379 10.8991 0.150229C11.4954 0.143078 12.0874 0.253471 12.641 0.475101C13.1947 0.696731 13.6993 1.02526 14.126 1.44192L14.204 1.51892C15.0777 2.40322 15.5742 3.59195 15.589 4.83492H18.352C18.5154 4.83791 18.6717 4.90164 18.7906 5.01369C18.9095 5.12573 18.9824 5.27805 18.995 5.44092L21.755 20.9799C21.7575 20.9995 21.7575 21.0193 21.755 21.0389C21.711 21.9295 21.3166 22.7666 20.658 23.3677C19.9994 23.9688 19.1299 24.2852 18.239 24.2479ZM7.61204 6.16692L10.956 1.47492C10.5208 1.47485 10.09 1.56158 9.68873 1.73002C9.28745 1.89847 8.92379 2.14525 8.61904 2.45592C7.99137 3.08865 7.63299 3.93979 7.61904 4.83092H14.295C14.2803 3.93996 13.922 3.08912 13.295 2.45592C12.9895 2.146 12.6253 1.9 12.2238 1.73226C11.8222 1.56452 11.3912 1.4784 10.956 1.47892L7.61204 6.16692Z" stroke="white" stroke-width="0.3"/>
</svg>
