<svg xmlns="http://www.w3.org/2000/svg" width="22.323" height="20.392"><path fill="#fff" stroke="#fff" stroke-width=".3" d="M15.755.151h-.111a6.864 6.864 0 0 0-4.341 1.885l-.142.136-.141-.135A6.873 6.873 0 0 0 6.67.151h-.111A6.429 6.429 0 0 0 .15 6.443a8.872 8.872 0 0 0 2.753 6.4c2.892 2.787 7.743 6.885 7.788 6.921l.515.436.509-.439c.044-.037 4.863-4.178 7.7-6.917a8.877 8.877 0 0 0 2.754-6.4A6.432 6.432 0 0 0 15.755.151Zm2.572 11.656c-2.21 2.131-5.626 5.115-6.993 6.3l-.134.115-.135-.114c-1.378-1.177-4.827-4.147-7.064-6.3a7.442 7.442 0 0 1-2.31-5.371 4.925 4.925 0 0 1 4.912-4.819h.083v.155l.01-.153a5.313 5.313 0 0 1 3.87 2.1l.6.719.6-.726a5.3 5.3 0 0 1 3.862-2.094h.086a4.922 4.922 0 0 1 4.921 4.814 7.438 7.438 0 0 1-2.308 5.374Z" data-name="Tracé 9657"/></svg>